<mxfile host="app.diagrams.net" modified="2023-03-13T19:08:43.097Z" agent="5.0 (Macintosh; Intel Mac OS X 10_15_7) AppleWebKit/537.36 (KHTML, like Gecko) Chrome/111.0.0.0 Safari/537.36" etag="nn7t-8pWxcGyYgTQwqWn" version="21.0.6" type="github" pages="4">
  <diagram id="3UhVmCcHijB_X3TgjhHq" name="CDN">
    <mxGraphModel dx="615" dy="362" grid="1" gridSize="20" guides="1" tooltips="1" connect="1" arrows="1" fold="1" page="1" pageScale="1" pageWidth="2336" pageHeight="1654" math="0" shadow="0">
      <root>
        <mxCell id="0" />
        <mxCell id="1" parent="0" />
        <mxCell id="7UALoAVUU0PhSSIc3WFT-1" value="" style="rounded=0;whiteSpace=wrap;html=1;perimeterSpacing=0;strokeWidth=3;fillColor=#f5f5f5;fontColor=#333333;strokeColor=#666666;" parent="1" vertex="1">
          <mxGeometry x="280" y="100" width="580" height="560" as="geometry" />
        </mxCell>
        <mxCell id="KPUyAOsrxZvU4OGMJ7eR-22" value="" style="edgeStyle=orthogonalEdgeStyle;rounded=0;orthogonalLoop=1;jettySize=auto;html=1;fontStyle=1;strokeWidth=3;" parent="1" source="KPUyAOsrxZvU4OGMJ7eR-1" target="KPUyAOsrxZvU4OGMJ7eR-2" edge="1">
          <mxGeometry relative="1" as="geometry" />
        </mxCell>
        <mxCell id="KPUyAOsrxZvU4OGMJ7eR-1" value="Collection" style="rounded=1;whiteSpace=wrap;html=1;fillColor=#dae8fc;strokeColor=#6c8ebf;fontStyle=1;strokeWidth=3;" parent="1" vertex="1">
          <mxGeometry x="490" y="120" width="120" height="60" as="geometry" />
        </mxCell>
        <mxCell id="KPUyAOsrxZvU4OGMJ7eR-6" style="edgeStyle=orthogonalEdgeStyle;rounded=0;orthogonalLoop=1;jettySize=auto;html=1;entryX=1;entryY=0.5;entryDx=0;entryDy=0;fontStyle=1;strokeWidth=3;" parent="1" source="KPUyAOsrxZvU4OGMJ7eR-2" target="KPUyAOsrxZvU4OGMJ7eR-3" edge="1">
          <mxGeometry relative="1" as="geometry">
            <Array as="points">
              <mxPoint x="540" y="340" />
            </Array>
          </mxGeometry>
        </mxCell>
        <mxCell id="KPUyAOsrxZvU4OGMJ7eR-7" style="edgeStyle=orthogonalEdgeStyle;rounded=0;orthogonalLoop=1;jettySize=auto;html=1;entryX=0;entryY=0.5;entryDx=0;entryDy=0;fontStyle=1;strokeWidth=3;" parent="1" source="KPUyAOsrxZvU4OGMJ7eR-2" target="KPUyAOsrxZvU4OGMJ7eR-4" edge="1">
          <mxGeometry relative="1" as="geometry">
            <Array as="points">
              <mxPoint x="560" y="340" />
            </Array>
          </mxGeometry>
        </mxCell>
        <mxCell id="KPUyAOsrxZvU4OGMJ7eR-2" value="Set" style="rounded=1;whiteSpace=wrap;html=1;fillColor=#dae8fc;strokeColor=#6c8ebf;fontStyle=1;strokeWidth=3;" parent="1" vertex="1">
          <mxGeometry x="490" y="220" width="120" height="60" as="geometry" />
        </mxCell>
        <mxCell id="KPUyAOsrxZvU4OGMJ7eR-19" style="edgeStyle=orthogonalEdgeStyle;rounded=0;orthogonalLoop=1;jettySize=auto;html=1;fontStyle=1;strokeWidth=3;" parent="1" source="KPUyAOsrxZvU4OGMJ7eR-3" target="KPUyAOsrxZvU4OGMJ7eR-8" edge="1">
          <mxGeometry relative="1" as="geometry" />
        </mxCell>
        <mxCell id="KPUyAOsrxZvU4OGMJ7eR-3" value="SortedSet" style="rounded=1;whiteSpace=wrap;html=1;fillColor=#dae8fc;strokeColor=#6c8ebf;fontStyle=1;strokeWidth=3;" parent="1" vertex="1">
          <mxGeometry x="370" y="310" width="120" height="60" as="geometry" />
        </mxCell>
        <mxCell id="KPUyAOsrxZvU4OGMJ7eR-16" style="edgeStyle=orthogonalEdgeStyle;rounded=0;orthogonalLoop=1;jettySize=auto;html=1;fontStyle=1;strokeWidth=3;" parent="1" source="KPUyAOsrxZvU4OGMJ7eR-4" target="KPUyAOsrxZvU4OGMJ7eR-10" edge="1">
          <mxGeometry relative="1" as="geometry" />
        </mxCell>
        <mxCell id="KPUyAOsrxZvU4OGMJ7eR-17" style="edgeStyle=orthogonalEdgeStyle;rounded=0;orthogonalLoop=1;jettySize=auto;html=1;fontStyle=1;strokeWidth=3;" parent="1" source="KPUyAOsrxZvU4OGMJ7eR-4" target="KPUyAOsrxZvU4OGMJ7eR-13" edge="1">
          <mxGeometry relative="1" as="geometry">
            <mxPoint x="600" y="430" as="targetPoint" />
            <Array as="points">
              <mxPoint x="670" y="440" />
              <mxPoint x="670" y="440" />
            </Array>
          </mxGeometry>
        </mxCell>
        <mxCell id="KPUyAOsrxZvU4OGMJ7eR-20" style="edgeStyle=orthogonalEdgeStyle;rounded=0;orthogonalLoop=1;jettySize=auto;html=1;entryX=1;entryY=0.5;entryDx=0;entryDy=0;exitX=0;exitY=0.75;exitDx=0;exitDy=0;fontStyle=1;strokeWidth=3;" parent="1" source="KPUyAOsrxZvU4OGMJ7eR-4" target="KPUyAOsrxZvU4OGMJ7eR-8" edge="1">
          <mxGeometry relative="1" as="geometry">
            <Array as="points">
              <mxPoint x="600" y="355" />
              <mxPoint x="600" y="380" />
              <mxPoint x="495" y="380" />
              <mxPoint x="495" y="460" />
            </Array>
          </mxGeometry>
        </mxCell>
        <mxCell id="KPUyAOsrxZvU4OGMJ7eR-4" value="AbstractSet" style="rounded=1;whiteSpace=wrap;html=1;fillColor=#dae8fc;strokeColor=#6c8ebf;fontStyle=1;strokeWidth=3;" parent="1" vertex="1">
          <mxGeometry x="610" y="310" width="120" height="60" as="geometry" />
        </mxCell>
        <mxCell id="KPUyAOsrxZvU4OGMJ7eR-21" style="edgeStyle=orthogonalEdgeStyle;rounded=0;orthogonalLoop=1;jettySize=auto;html=1;entryX=0.5;entryY=0;entryDx=0;entryDy=0;fontStyle=1;strokeWidth=3;" parent="1" source="KPUyAOsrxZvU4OGMJ7eR-8" target="KPUyAOsrxZvU4OGMJ7eR-9" edge="1">
          <mxGeometry relative="1" as="geometry" />
        </mxCell>
        <mxCell id="KPUyAOsrxZvU4OGMJ7eR-8" value="HashSet" style="ellipse;whiteSpace=wrap;html=1;aspect=fixed;fillColor=#d5e8d4;strokeColor=#82b366;fontStyle=1;strokeWidth=3;" parent="1" vertex="1">
          <mxGeometry x="300" y="420" width="80" height="80" as="geometry" />
        </mxCell>
        <mxCell id="KPUyAOsrxZvU4OGMJ7eR-9" value="LinkHashSet" style="ellipse;whiteSpace=wrap;html=1;aspect=fixed;fillColor=#d5e8d4;strokeColor=#82b366;fontStyle=1;strokeWidth=3;" parent="1" vertex="1">
          <mxGeometry x="300" y="560" width="80" height="80" as="geometry" />
        </mxCell>
        <mxCell id="KPUyAOsrxZvU4OGMJ7eR-10" value="EnumSet" style="ellipse;whiteSpace=wrap;html=1;aspect=fixed;fillColor=#d5e8d4;strokeColor=#82b366;fontStyle=1;strokeWidth=3;" parent="1" vertex="1">
          <mxGeometry x="760" y="400" width="80" height="80" as="geometry" />
        </mxCell>
        <mxCell id="KPUyAOsrxZvU4OGMJ7eR-13" value="TreeSet" style="ellipse;whiteSpace=wrap;html=1;aspect=fixed;fillColor=#d5e8d4;strokeColor=#82b366;fontStyle=1;strokeWidth=3;" parent="1" vertex="1">
          <mxGeometry x="630" y="460" width="80" height="80" as="geometry" />
        </mxCell>
        <mxCell id="KPUyAOsrxZvU4OGMJ7eR-23" value="" style="ellipse;whiteSpace=wrap;html=1;aspect=fixed;fillColor=#d5e8d4;strokeColor=#82b366;strokeWidth=3;" parent="1" vertex="1">
          <mxGeometry x="700" y="140" width="60" height="60" as="geometry" />
        </mxCell>
        <mxCell id="KPUyAOsrxZvU4OGMJ7eR-24" value="" style="rounded=1;whiteSpace=wrap;html=1;fillColor=#dae8fc;strokeColor=#6c8ebf;strokeWidth=3;" parent="1" vertex="1">
          <mxGeometry x="700" y="220" width="60" height="40" as="geometry" />
        </mxCell>
        <mxCell id="KPUyAOsrxZvU4OGMJ7eR-25" value="&lt;b&gt;Class&lt;/b&gt;" style="text;html=1;strokeColor=none;fillColor=none;align=center;verticalAlign=middle;whiteSpace=wrap;rounded=0;" parent="1" vertex="1">
          <mxGeometry x="770" y="155" width="60" height="30" as="geometry" />
        </mxCell>
        <mxCell id="KPUyAOsrxZvU4OGMJ7eR-26" value="&lt;b&gt;Interface&lt;/b&gt;" style="text;html=1;strokeColor=none;fillColor=none;align=center;verticalAlign=middle;whiteSpace=wrap;rounded=0;" parent="1" vertex="1">
          <mxGeometry x="770" y="220" width="60" height="30" as="geometry" />
        </mxCell>
        <mxCell id="KPUyAOsrxZvU4OGMJ7eR-27" value="" style="rounded=0;whiteSpace=wrap;html=1;perimeterSpacing=0;strokeWidth=3;fillColor=#f5f5f5;fontColor=#333333;strokeColor=#666666;" parent="1" vertex="1">
          <mxGeometry x="280" y="720" width="760" height="520" as="geometry" />
        </mxCell>
        <mxCell id="KPUyAOsrxZvU4OGMJ7eR-28" value="" style="edgeStyle=orthogonalEdgeStyle;rounded=0;orthogonalLoop=1;jettySize=auto;html=1;fontStyle=1;strokeWidth=3;" parent="1" source="KPUyAOsrxZvU4OGMJ7eR-29" target="KPUyAOsrxZvU4OGMJ7eR-32" edge="1">
          <mxGeometry relative="1" as="geometry" />
        </mxCell>
        <mxCell id="KPUyAOsrxZvU4OGMJ7eR-53" style="edgeStyle=orthogonalEdgeStyle;rounded=0;orthogonalLoop=1;jettySize=auto;html=1;entryX=0.5;entryY=0;entryDx=0;entryDy=0;strokeWidth=3;" parent="1" source="KPUyAOsrxZvU4OGMJ7eR-29" target="KPUyAOsrxZvU4OGMJ7eR-52" edge="1">
          <mxGeometry relative="1" as="geometry" />
        </mxCell>
        <mxCell id="KPUyAOsrxZvU4OGMJ7eR-29" value="Collection" style="rounded=1;whiteSpace=wrap;html=1;fillColor=#dae8fc;strokeColor=#6c8ebf;fontStyle=1;strokeWidth=3;" parent="1" vertex="1">
          <mxGeometry x="490" y="740" width="120" height="60" as="geometry" />
        </mxCell>
        <mxCell id="KPUyAOsrxZvU4OGMJ7eR-49" style="edgeStyle=orthogonalEdgeStyle;rounded=0;orthogonalLoop=1;jettySize=auto;html=1;entryX=0.5;entryY=0;entryDx=0;entryDy=0;strokeWidth=3;" parent="1" source="KPUyAOsrxZvU4OGMJ7eR-32" target="KPUyAOsrxZvU4OGMJ7eR-43" edge="1">
          <mxGeometry relative="1" as="geometry" />
        </mxCell>
        <mxCell id="KPUyAOsrxZvU4OGMJ7eR-50" style="edgeStyle=orthogonalEdgeStyle;rounded=0;orthogonalLoop=1;jettySize=auto;html=1;strokeWidth=3;" parent="1" source="KPUyAOsrxZvU4OGMJ7eR-32" target="KPUyAOsrxZvU4OGMJ7eR-40" edge="1">
          <mxGeometry relative="1" as="geometry" />
        </mxCell>
        <mxCell id="KPUyAOsrxZvU4OGMJ7eR-51" style="edgeStyle=orthogonalEdgeStyle;rounded=0;orthogonalLoop=1;jettySize=auto;html=1;entryX=0.5;entryY=0;entryDx=0;entryDy=0;strokeWidth=3;" parent="1" source="KPUyAOsrxZvU4OGMJ7eR-32" target="KPUyAOsrxZvU4OGMJ7eR-42" edge="1">
          <mxGeometry relative="1" as="geometry" />
        </mxCell>
        <mxCell id="KPUyAOsrxZvU4OGMJ7eR-32" value="List" style="rounded=1;whiteSpace=wrap;html=1;fillColor=#dae8fc;strokeColor=#6c8ebf;fontStyle=1;strokeWidth=3;" parent="1" vertex="1">
          <mxGeometry x="490" y="840" width="120" height="60" as="geometry" />
        </mxCell>
        <mxCell id="KPUyAOsrxZvU4OGMJ7eR-39" style="edgeStyle=orthogonalEdgeStyle;rounded=0;orthogonalLoop=1;jettySize=auto;html=1;entryX=0.5;entryY=0;entryDx=0;entryDy=0;fontStyle=1;strokeWidth=3;" parent="1" source="KPUyAOsrxZvU4OGMJ7eR-40" target="KPUyAOsrxZvU4OGMJ7eR-41" edge="1">
          <mxGeometry relative="1" as="geometry" />
        </mxCell>
        <mxCell id="KPUyAOsrxZvU4OGMJ7eR-40" value="Vector" style="ellipse;whiteSpace=wrap;html=1;aspect=fixed;fillColor=#d5e8d4;strokeColor=#82b366;fontStyle=1;strokeWidth=3;" parent="1" vertex="1">
          <mxGeometry x="390" y="960" width="80" height="80" as="geometry" />
        </mxCell>
        <mxCell id="KPUyAOsrxZvU4OGMJ7eR-41" value="Stack" style="ellipse;whiteSpace=wrap;html=1;aspect=fixed;fillColor=#d5e8d4;strokeColor=#82b366;fontStyle=1;strokeWidth=3;" parent="1" vertex="1">
          <mxGeometry x="390" y="1140" width="80" height="80" as="geometry" />
        </mxCell>
        <mxCell id="KPUyAOsrxZvU4OGMJ7eR-42" value="ArrayList" style="ellipse;whiteSpace=wrap;html=1;aspect=fixed;fillColor=#d5e8d4;strokeColor=#82b366;fontStyle=1;strokeWidth=3;" parent="1" vertex="1">
          <mxGeometry x="630" y="960" width="80" height="80" as="geometry" />
        </mxCell>
        <mxCell id="KPUyAOsrxZvU4OGMJ7eR-43" value="LinkedList" style="ellipse;whiteSpace=wrap;html=1;aspect=fixed;fillColor=#d5e8d4;strokeColor=#82b366;fontStyle=1;strokeWidth=3;" parent="1" vertex="1">
          <mxGeometry x="510" y="1060" width="80" height="80" as="geometry" />
        </mxCell>
        <mxCell id="KPUyAOsrxZvU4OGMJ7eR-44" value="" style="ellipse;whiteSpace=wrap;html=1;aspect=fixed;fillColor=#d5e8d4;strokeColor=#82b366;strokeWidth=3;" parent="1" vertex="1">
          <mxGeometry x="300" y="740" width="60" height="60" as="geometry" />
        </mxCell>
        <mxCell id="KPUyAOsrxZvU4OGMJ7eR-45" value="" style="rounded=1;whiteSpace=wrap;html=1;fillColor=#dae8fc;strokeColor=#6c8ebf;strokeWidth=3;" parent="1" vertex="1">
          <mxGeometry x="300" y="820" width="60" height="40" as="geometry" />
        </mxCell>
        <mxCell id="KPUyAOsrxZvU4OGMJ7eR-46" value="&lt;b&gt;Class&lt;/b&gt;" style="text;html=1;strokeColor=none;fillColor=none;align=center;verticalAlign=middle;whiteSpace=wrap;rounded=0;strokeWidth=3;" parent="1" vertex="1">
          <mxGeometry x="370" y="755" width="60" height="30" as="geometry" />
        </mxCell>
        <mxCell id="KPUyAOsrxZvU4OGMJ7eR-47" value="&lt;b&gt;Interface&lt;/b&gt;" style="text;html=1;strokeColor=none;fillColor=none;align=center;verticalAlign=middle;whiteSpace=wrap;rounded=0;strokeWidth=3;" parent="1" vertex="1">
          <mxGeometry x="370" y="820" width="60" height="30" as="geometry" />
        </mxCell>
        <mxCell id="KPUyAOsrxZvU4OGMJ7eR-55" style="edgeStyle=orthogonalEdgeStyle;rounded=0;orthogonalLoop=1;jettySize=auto;html=1;strokeWidth=3;" parent="1" source="KPUyAOsrxZvU4OGMJ7eR-52" target="KPUyAOsrxZvU4OGMJ7eR-54" edge="1">
          <mxGeometry relative="1" as="geometry" />
        </mxCell>
        <mxCell id="KPUyAOsrxZvU4OGMJ7eR-59" style="edgeStyle=orthogonalEdgeStyle;rounded=0;orthogonalLoop=1;jettySize=auto;html=1;strokeWidth=3;" parent="1" source="KPUyAOsrxZvU4OGMJ7eR-52" target="KPUyAOsrxZvU4OGMJ7eR-58" edge="1">
          <mxGeometry relative="1" as="geometry" />
        </mxCell>
        <mxCell id="KPUyAOsrxZvU4OGMJ7eR-52" value="Queue" style="rounded=1;whiteSpace=wrap;html=1;fillColor=#dae8fc;strokeColor=#6c8ebf;fontStyle=1;strokeWidth=3;" parent="1" vertex="1">
          <mxGeometry x="760" y="840" width="120" height="60" as="geometry" />
        </mxCell>
        <mxCell id="KPUyAOsrxZvU4OGMJ7eR-56" style="edgeStyle=orthogonalEdgeStyle;rounded=0;orthogonalLoop=1;jettySize=auto;html=1;entryX=1;entryY=0.5;entryDx=0;entryDy=0;strokeWidth=3;" parent="1" source="KPUyAOsrxZvU4OGMJ7eR-54" target="KPUyAOsrxZvU4OGMJ7eR-43" edge="1">
          <mxGeometry relative="1" as="geometry">
            <Array as="points">
              <mxPoint x="820" y="1100" />
            </Array>
          </mxGeometry>
        </mxCell>
        <mxCell id="KPUyAOsrxZvU4OGMJ7eR-54" value="Dequeue" style="rounded=1;whiteSpace=wrap;html=1;fillColor=#dae8fc;strokeColor=#6c8ebf;fontStyle=1;strokeWidth=3;" parent="1" vertex="1">
          <mxGeometry x="760" y="970" width="120" height="60" as="geometry" />
        </mxCell>
        <mxCell id="KPUyAOsrxZvU4OGMJ7eR-58" value="PriorityQueue" style="ellipse;whiteSpace=wrap;html=1;aspect=fixed;fillColor=#d5e8d4;strokeColor=#82b366;fontStyle=1;strokeWidth=3;" parent="1" vertex="1">
          <mxGeometry x="940" y="960" width="85" height="85" as="geometry" />
        </mxCell>
      </root>
    </mxGraphModel>
  </diagram>
  <diagram id="k0WDbFRyysc51y4FCmXz" name="Spring Core">
    <mxGraphModel dx="1354" dy="-2239" grid="1" gridSize="10" guides="1" tooltips="1" connect="1" arrows="1" fold="1" page="0" pageScale="1" pageWidth="2336" pageHeight="1654" math="0" shadow="0">
      <root>
        <mxCell id="0" />
        <mxCell id="1" parent="0" />
        <mxCell id="a-IVGbKQMPojYPQUbN83-1" value="&lt;b&gt;&lt;font style=&quot;font-size: 72px;&quot;&gt;IOC&lt;/font&gt;&lt;/b&gt;" style="rounded=1;whiteSpace=wrap;html=1;strokeWidth=3;fillColor=#D1FFFF;strokeColor=#000000;" parent="1" vertex="1">
          <mxGeometry x="406" y="2960" width="244" height="166" as="geometry" />
        </mxCell>
        <mxCell id="a-IVGbKQMPojYPQUbN83-2" value="" style="shape=flexArrow;endArrow=classic;html=1;rounded=0;fontSize=72;entryX=0;entryY=0.25;entryDx=0;entryDy=0;fillColor=#FF441F;strokeColor=#000000;" parent="1" target="a-IVGbKQMPojYPQUbN83-1" edge="1">
          <mxGeometry width="50" height="50" relative="1" as="geometry">
            <mxPoint x="240" y="3000" as="sourcePoint" />
            <mxPoint x="290" y="2990" as="targetPoint" />
          </mxGeometry>
        </mxCell>
        <mxCell id="a-IVGbKQMPojYPQUbN83-3" value="" style="shape=flexArrow;endArrow=classic;html=1;rounded=0;fontSize=72;fillColor=#FF441F;entryX=0;entryY=0.75;entryDx=0;entryDy=0;strokeColor=#000000;" parent="1" target="a-IVGbKQMPojYPQUbN83-1" edge="1">
          <mxGeometry width="50" height="50" relative="1" as="geometry">
            <mxPoint x="240" y="3085" as="sourcePoint" />
            <mxPoint x="400" y="3080" as="targetPoint" />
          </mxGeometry>
        </mxCell>
        <mxCell id="a-IVGbKQMPojYPQUbN83-6" value="Bean" style="rounded=1;whiteSpace=wrap;html=1;fontSize=24;strokeWidth=3;fillColor=#FFFED4;strokeColor=#000000;" parent="1" vertex="1">
          <mxGeometry x="90" y="2980" width="151" height="40" as="geometry" />
        </mxCell>
        <mxCell id="a-IVGbKQMPojYPQUbN83-7" value="Configuration" style="rounded=1;whiteSpace=wrap;html=1;fontSize=24;strokeWidth=3;fillColor=#FFFED4;strokeColor=#000000;" parent="1" vertex="1">
          <mxGeometry x="90" y="3060" width="151" height="40" as="geometry" />
        </mxCell>
        <mxCell id="a-IVGbKQMPojYPQUbN83-8" value="&lt;div style=&quot;&quot;&gt;&lt;span style=&quot;background-color: initial;&quot;&gt;&amp;lt;beans&amp;gt;&amp;nbsp;&lt;/span&gt;&lt;/div&gt;&lt;div style=&quot;&quot;&gt;&lt;span style=&quot;background-color: initial;&quot;&gt;&amp;lt;bean name=&quot;Student&quot; class=&quot;FQCN&quot;&amp;gt;&lt;/span&gt;&lt;/div&gt;&lt;div style=&quot;&quot;&gt;&lt;span style=&quot;background-color: initial;&quot;&gt;&lt;br&gt;&lt;/span&gt;&lt;/div&gt;&lt;div style=&quot;&quot;&gt;&lt;span style=&quot;background-color: initial;&quot;&gt;&lt;span style=&quot;&quot;&gt; &lt;/span&gt;&lt;span style=&quot;white-space: pre;&quot;&gt; &lt;/span&gt;&lt;font color=&quot;#ff1e05&quot;&gt;&lt;b&gt;&amp;lt;property name=&quot;id&quot;&amp;gt;&lt;br&gt;&lt;/b&gt;&lt;/font&gt;&lt;/span&gt;&lt;/div&gt;&lt;div style=&quot;&quot;&gt;&lt;span style=&quot;background-color: initial;&quot;&gt;&lt;font color=&quot;#ff1e05&quot;&gt;&lt;b&gt;&lt;span style=&quot;&quot;&gt; &lt;/span&gt;&lt;span style=&quot;&quot;&gt; &lt;/span&gt;&lt;span style=&quot;white-space: pre;&quot;&gt; &lt;/span&gt;&lt;span style=&quot;white-space: pre;&quot;&gt; &lt;/span&gt;&amp;lt;value&amp;gt; 1 &amp;lt;/value&amp;gt;&lt;br&gt;&lt;/b&gt;&lt;/font&gt;&lt;/span&gt;&lt;/div&gt;&lt;div style=&quot;&quot;&gt;&lt;span style=&quot;background-color: initial;&quot;&gt;&lt;font color=&quot;#ff1e05&quot;&gt;&lt;b&gt;&lt;span style=&quot;&quot;&gt; &lt;/span&gt;&lt;span style=&quot;white-space: pre;&quot;&gt; &lt;/span&gt;&amp;lt;/property&amp;gt;&lt;br&gt;&lt;/b&gt;&lt;/font&gt;&lt;/span&gt;&lt;/div&gt;&lt;div style=&quot;&quot;&gt;&lt;span style=&quot;background-color: initial;&quot;&gt;&lt;font color=&quot;#ff1e05&quot;&gt;&lt;b&gt;&lt;br&gt;&lt;/b&gt;&lt;/font&gt;&lt;/span&gt;&lt;/div&gt;&lt;div style=&quot;&quot;&gt;&lt;span style=&quot;background-color: initial;&quot;&gt;&lt;b style=&quot;&quot;&gt;&lt;span style=&quot;color: rgb(255, 30, 5); white-space: pre;&quot;&gt; &lt;/span&gt;&lt;font color=&quot;#0000ff&quot;&gt;&amp;lt;property name=&quot;name&quot;&amp;gt;&lt;br&gt;&lt;/font&gt;&lt;/b&gt;&lt;/span&gt;&lt;/div&gt;&lt;div style=&quot;&quot;&gt;&lt;span style=&quot;background-color: initial;&quot;&gt;&lt;b&gt;&lt;font color=&quot;#0000ff&quot;&gt;&lt;span style=&quot;white-space: pre;&quot;&gt; &lt;span style=&quot;white-space: pre;&quot;&gt; &lt;/span&gt;&lt;/span&gt;&amp;lt;value&amp;gt; Dhruv &amp;lt;/value&amp;gt;&lt;br&gt;&lt;/font&gt;&lt;/b&gt;&lt;/span&gt;&lt;/div&gt;&lt;div style=&quot;&quot;&gt;&lt;span style=&quot;background-color: initial;&quot;&gt;&lt;b style=&quot;&quot;&gt;&lt;font color=&quot;#0000ff&quot;&gt;&lt;span style=&quot;white-space: pre;&quot;&gt; &lt;/span&gt;&amp;lt;/property&amp;gt;&lt;/font&gt;&lt;/b&gt;&lt;br&gt;&lt;/span&gt;&lt;/div&gt;&lt;div style=&quot;&quot;&gt;&lt;span style=&quot;background-color: initial;&quot;&gt;&lt;br&gt;&lt;/span&gt;&lt;/div&gt;&lt;div style=&quot;&quot;&gt;&lt;span style=&quot;background-color: initial;&quot;&gt;&amp;lt;bean&amp;gt;&lt;/span&gt;&lt;/div&gt;&lt;div style=&quot;&quot;&gt;&amp;lt;/beans&amp;gt;&lt;/div&gt;" style="rounded=0;whiteSpace=wrap;html=1;strokeWidth=3;fontSize=24;fillColor=#FFFFFF;align=left;shadow=0;glass=0;strokeColor=#000000;" parent="1" vertex="1">
          <mxGeometry x="-330" y="3220" width="435.5" height="390" as="geometry" />
        </mxCell>
        <mxCell id="xGKpMPTtXhYUpuBOn55M-2" value="&lt;div style=&quot;&quot;&gt;&lt;span style=&quot;background-color: initial;&quot;&gt;&amp;lt;beans&amp;gt;&amp;nbsp;&lt;/span&gt;&lt;/div&gt;&lt;div style=&quot;&quot;&gt;&lt;span style=&quot;background-color: initial;&quot;&gt;&amp;lt;bean name=&quot;Student&quot; class=&quot;FQCN&quot;&amp;gt;&lt;/span&gt;&lt;/div&gt;&lt;div style=&quot;&quot;&gt;&lt;span style=&quot;background-color: initial;&quot;&gt;&lt;br&gt;&lt;/span&gt;&lt;/div&gt;&lt;div style=&quot;&quot;&gt;&lt;span style=&quot;background-color: initial;&quot;&gt;&lt;span style=&quot;&quot;&gt; &lt;/span&gt;&lt;span style=&quot;white-space: pre;&quot;&gt; &lt;/span&gt;&lt;font color=&quot;#ff1e05&quot;&gt;&lt;b&gt;&amp;lt;property name=&quot;id&quot; value=&quot;1&quot; /&amp;gt;&lt;/b&gt;&lt;/font&gt;&lt;/span&gt;&lt;/div&gt;&lt;div style=&quot;&quot;&gt;&lt;span style=&quot;background-color: initial;&quot;&gt;&lt;b style=&quot;&quot;&gt;&lt;span style=&quot;color: rgb(255, 30, 5); white-space: pre;&quot;&gt; &lt;/span&gt;&lt;font color=&quot;#0000ff&quot;&gt;&amp;lt;property name=&quot;name&quot; value=&quot;Dhruv&quot; /&amp;gt;&lt;br&gt;&lt;/font&gt;&lt;/b&gt;&lt;/span&gt;&lt;/div&gt;&lt;div style=&quot;&quot;&gt;&lt;br&gt;&lt;/div&gt;&lt;div style=&quot;&quot;&gt;&lt;span style=&quot;background-color: initial;&quot;&gt;&amp;lt;bean&amp;gt;&lt;/span&gt;&lt;/div&gt;&lt;div style=&quot;&quot;&gt;&amp;lt;/beans&amp;gt;&lt;/div&gt;" style="rounded=0;whiteSpace=wrap;html=1;strokeWidth=3;fontSize=24;fillColor=#FFFFFF;align=left;shadow=0;glass=0;strokeColor=#000000;" parent="1" vertex="1">
          <mxGeometry x="159.75" y="3300" width="495.5" height="250" as="geometry" />
        </mxCell>
        <mxCell id="xGKpMPTtXhYUpuBOn55M-3" value="&lt;div style=&quot;&quot;&gt;&lt;span style=&quot;background-color: initial;&quot;&gt;&amp;lt;beans&amp;gt;&amp;nbsp;&lt;/span&gt;&lt;/div&gt;&lt;div style=&quot;&quot;&gt;&lt;span style=&quot;background-color: initial;&quot;&gt;&lt;br&gt;&lt;/span&gt;&lt;/div&gt;&lt;div style=&quot;&quot;&gt;&lt;span style=&quot;background-color: initial;&quot;&gt;&lt;font color=&quot;#0d1dff&quot;&gt;&lt;b&gt;&amp;lt;bean name=&quot;Student&quot; class=&quot;FQCN&quot;&amp;nbsp; p:id=&quot;1&quot; p:name=&quot;Dhruv&quot; /&amp;gt;&lt;/b&gt;&lt;/font&gt;&lt;/span&gt;&lt;/div&gt;&lt;div style=&quot;&quot;&gt;&lt;span style=&quot;background-color: initial;&quot;&gt;&lt;br&gt;&lt;/span&gt;&lt;/div&gt;&lt;div style=&quot;&quot;&gt;&lt;span style=&quot;background-color: initial;&quot;&gt;&amp;lt;/beans&amp;gt;&lt;/span&gt;&lt;/div&gt;" style="rounded=0;whiteSpace=wrap;html=1;strokeWidth=3;fontSize=24;fillColor=#FFFFFF;align=left;shadow=0;glass=0;strokeColor=#000000;" parent="1" vertex="1">
          <mxGeometry x="159.75" y="3590" width="780.25" height="160" as="geometry" />
        </mxCell>
        <mxCell id="xGKpMPTtXhYUpuBOn55M-4" value="&lt;div style=&quot;&quot;&gt;&lt;span style=&quot;background-color: initial;&quot;&gt;&amp;lt;beans&amp;gt;&amp;nbsp;&lt;/span&gt;&lt;/div&gt;&lt;div style=&quot;&quot;&gt;&lt;span style=&quot;background-color: initial;&quot;&gt;&lt;br&gt;&lt;/span&gt;&lt;/div&gt;&lt;div style=&quot;&quot;&gt;&lt;span style=&quot;background-color: initial;&quot;&gt;&lt;span style=&quot;white-space: pre;&quot;&gt; &lt;/span&gt;&amp;lt;bean name=&quot;Student&quot; class=&quot;FQCN&quot;&amp;gt;&lt;/span&gt;&lt;/div&gt;&lt;div style=&quot;&quot;&gt;&lt;span style=&quot;background-color: initial;&quot;&gt;&lt;span style=&quot;&quot;&gt; &lt;/span&gt;&lt;span style=&quot;&quot;&gt; &lt;/span&gt;&lt;b style=&quot;&quot;&gt;&lt;span style=&quot;white-space: pre;&quot;&gt; &lt;/span&gt;&lt;span style=&quot;white-space: pre;&quot;&gt; &lt;/span&gt;&amp;lt;property name=&quot;id&quot; value=&quot;1&quot; /&amp;gt;&lt;/b&gt;&lt;/span&gt;&lt;/div&gt;&lt;div style=&quot;&quot;&gt;&lt;span style=&quot;background-color: initial;&quot;&gt;&lt;b style=&quot;&quot;&gt; &lt;span style=&quot;white-space: pre;&quot;&gt; &lt;/span&gt;&lt;span style=&quot;white-space: pre;&quot;&gt; &lt;/span&gt;&amp;lt;property name=&quot;name&quot; value=&quot;Dhruv&quot; /&amp;gt;&lt;/b&gt;&lt;/span&gt;&lt;/div&gt;&lt;div style=&quot;&quot;&gt;&lt;span style=&quot;background-color: initial;&quot;&gt;&lt;b style=&quot;&quot;&gt;&lt;span style=&quot;white-space: pre;&quot;&gt; &lt;/span&gt;&lt;span style=&quot;white-space: pre;&quot;&gt; &lt;/span&gt;&lt;font color=&quot;#5b7d47&quot;&gt;&amp;lt;property name=&quot;address&quot;&amp;gt;&lt;br&gt;&lt;/font&gt;&lt;/b&gt;&lt;/span&gt;&lt;/div&gt;&lt;div style=&quot;&quot;&gt;&lt;span style=&quot;background-color: initial;&quot;&gt;&lt;b style=&quot;&quot;&gt;&lt;font color=&quot;#fa6800&quot;&gt;&lt;span style=&quot;white-space: pre;&quot;&gt; &lt;/span&gt;&lt;span style=&quot;white-space: pre;&quot;&gt; &lt;/span&gt;&lt;span style=&quot;white-space: pre;&quot;&gt; &lt;/span&gt;&amp;lt;ref bean=&quot;address&quot;/&amp;gt;&lt;br&gt;&lt;/font&gt;&lt;/b&gt;&lt;/span&gt;&lt;/div&gt;&lt;div style=&quot;&quot;&gt;&lt;span style=&quot;background-color: initial;&quot;&gt;&lt;b style=&quot;&quot;&gt;&lt;font color=&quot;#5b7d47&quot;&gt;&lt;span style=&quot;white-space: pre;&quot;&gt; &lt;/span&gt;&lt;span style=&quot;white-space: pre;&quot;&gt; &lt;/span&gt;&amp;lt;/property&amp;gt;&lt;/font&gt;&lt;br&gt;&lt;/b&gt;&lt;/span&gt;&lt;/div&gt;&lt;div style=&quot;&quot;&gt;&lt;span style=&quot;background-color: initial;&quot;&gt;&lt;span style=&quot;white-space: pre;&quot;&gt; &lt;/span&gt;&amp;lt;/bean&amp;gt;&lt;/span&gt;&lt;/div&gt;&lt;div style=&quot;&quot;&gt;&lt;span style=&quot;background-color: initial;&quot;&gt;&lt;br&gt;&lt;/span&gt;&lt;/div&gt;&lt;div style=&quot;&quot;&gt;&lt;span style=&quot;background-color: initial;&quot;&gt;&lt;span style=&quot;white-space: pre;&quot;&gt; &lt;/span&gt;&amp;lt;bean name=&quot;address&quot; class=&quot;FQCN&quot;&amp;gt;&lt;/span&gt;&lt;/div&gt;&lt;div style=&quot;&quot;&gt;&lt;span style=&quot;background-color: initial;&quot;&gt;&lt;br&gt;&lt;/span&gt;&lt;/div&gt;&lt;div style=&quot;&quot;&gt;&lt;span style=&quot;background-color: initial;&quot;&gt;&lt;span style=&quot;&quot;&gt; &lt;/span&gt;&lt;span style=&quot;white-space: pre;&quot;&gt; &lt;span style=&quot;white-space: pre;&quot;&gt; &lt;/span&gt;&lt;/span&gt;&amp;lt;property name=&quot;city&quot;&amp;gt;&lt;/span&gt;&lt;/div&gt;&lt;div style=&quot;&quot;&gt;&lt;span style=&quot;background-color: initial;&quot;&gt;&lt;span style=&quot;&quot;&gt; &lt;/span&gt;&lt;span style=&quot;&quot;&gt; &lt;/span&gt;&lt;span style=&quot;white-space: pre;&quot;&gt; &lt;/span&gt;&lt;span style=&quot;white-space: pre;&quot;&gt; &lt;span style=&quot;white-space: pre;&quot;&gt; &lt;/span&gt;&lt;/span&gt;&amp;lt;value&amp;gt;Brampton&amp;lt;/value&amp;gt;&lt;br&gt;&lt;/span&gt;&lt;/div&gt;&lt;div style=&quot;&quot;&gt;&lt;span style=&quot;background-color: initial;&quot;&gt;&lt;span style=&quot;&quot;&gt; &lt;/span&gt;&lt;span style=&quot;white-space: pre;&quot;&gt; &lt;span style=&quot;white-space: pre;&quot;&gt; &lt;/span&gt;&lt;/span&gt;&amp;lt;/property&amp;gt;&lt;br&gt;&lt;/span&gt;&lt;/div&gt;&lt;div style=&quot;&quot;&gt;&lt;span style=&quot;background-color: initial;&quot;&gt;&lt;br&gt;&lt;/span&gt;&lt;/div&gt;&lt;div style=&quot;&quot;&gt;&lt;span style=&quot;background-color: initial;&quot;&gt;&lt;span style=&quot;white-space: pre;&quot;&gt; &lt;span style=&quot;white-space: pre;&quot;&gt; &lt;/span&gt;&amp;lt;&lt;/span&gt;property name=&quot;state&quot;&amp;gt;&lt;br&gt;&lt;/span&gt;&lt;/div&gt;&lt;div style=&quot;&quot;&gt;&lt;span style=&quot;background-color: initial;&quot;&gt;&lt;span style=&quot;white-space: pre;&quot;&gt; &lt;/span&gt;&lt;span style=&quot;white-space: pre;&quot;&gt; &lt;/span&gt;&lt;span style=&quot;white-space: pre;&quot;&gt; &lt;/span&gt;&amp;lt;value&amp;gt;ON&amp;lt;/value&amp;gt;&lt;br&gt;&lt;/span&gt;&lt;/div&gt;&lt;div style=&quot;&quot;&gt;&lt;span style=&quot;background-color: initial;&quot;&gt;&lt;span style=&quot;white-space: pre;&quot;&gt; &lt;/span&gt;&lt;span style=&quot;white-space: pre;&quot;&gt; &lt;/span&gt;&amp;lt;/property&amp;gt;&lt;/span&gt;&lt;/div&gt;&lt;div style=&quot;&quot;&gt;&lt;span style=&quot;background-color: initial;&quot;&gt;&lt;span style=&quot;white-space: pre;&quot;&gt; &lt;/span&gt;&amp;lt;/bean&amp;gt;&lt;/span&gt;&lt;/div&gt;&lt;div style=&quot;&quot;&gt;&lt;span style=&quot;background-color: initial;&quot;&gt;&lt;br&gt;&lt;/span&gt;&lt;/div&gt;&lt;div style=&quot;&quot;&gt;&amp;lt;/beans&amp;gt;&lt;/div&gt;" style="rounded=0;whiteSpace=wrap;html=1;strokeWidth=3;fontSize=24;fillColor=#FFFFFF;align=left;shadow=0;glass=0;strokeColor=#000000;" parent="1" vertex="1">
          <mxGeometry x="960" y="3600" width="600" height="650" as="geometry" />
        </mxCell>
        <mxCell id="wLwZ-nhRfxtlHpbRHB-M-1" value="&lt;div style=&quot;&quot;&gt;&lt;span style=&quot;background-color: initial;&quot;&gt;&amp;lt;beans&amp;gt;&amp;nbsp;&lt;/span&gt;&lt;/div&gt;&lt;div style=&quot;&quot;&gt;&lt;span style=&quot;background-color: initial;&quot;&gt;&amp;lt;bean name=&quot;Student&quot; class=&quot;FQCN&quot;&amp;gt;&lt;/span&gt;&lt;/div&gt;&lt;div style=&quot;&quot;&gt;&lt;span style=&quot;background-color: initial;&quot;&gt;&lt;br&gt;&lt;/span&gt;&lt;/div&gt;&lt;div style=&quot;&quot;&gt;&lt;span style=&quot;background-color: initial;&quot;&gt;&lt;span style=&quot;&quot;&gt; &lt;/span&gt;&lt;span style=&quot;&quot;&gt; &lt;/span&gt;&lt;font color=&quot;#ff1e05&quot;&gt;&lt;b&gt;&lt;span style=&quot;white-space: pre;&quot;&gt; &lt;/span&gt;&amp;lt;constructor-arg&amp;gt;&lt;br&gt;&lt;/b&gt;&lt;/font&gt;&lt;/span&gt;&lt;/div&gt;&lt;div style=&quot;&quot;&gt;&lt;span style=&quot;background-color: initial;&quot;&gt;&lt;font color=&quot;#ff1e05&quot;&gt;&lt;b&gt;&lt;span style=&quot;&quot;&gt; &lt;/span&gt;&lt;span style=&quot;&quot;&gt; &lt;/span&gt;&lt;span style=&quot;&quot;&gt; &lt;/span&gt;&lt;span style=&quot;&quot;&gt; &lt;/span&gt;&lt;span style=&quot;white-space: pre;&quot;&gt; &lt;/span&gt;&lt;span style=&quot;white-space: pre;&quot;&gt; &lt;/span&gt;&amp;lt;value&amp;gt; 1 &amp;lt;/value&amp;gt;&lt;br&gt;&lt;/b&gt;&lt;/font&gt;&lt;/span&gt;&lt;/div&gt;&lt;div style=&quot;&quot;&gt;&lt;font color=&quot;#ff1e05&quot;&gt;&lt;b&gt;&lt;span style=&quot;&quot;&gt; &lt;/span&gt;&lt;span style=&quot;white-space: pre;&quot;&gt; &lt;/span&gt;&amp;lt;/&lt;/b&gt;&lt;/font&gt;&lt;span style=&quot;background-color: initial;&quot;&gt;&lt;/span&gt;&lt;b style=&quot;border-color: var(--border-color); color: rgb(255, 30, 5);&quot;&gt;constructor-arg&lt;/b&gt;&lt;span style=&quot;background-color: initial;&quot;&gt;&lt;font color=&quot;#ff1e05&quot;&gt;&lt;b&gt;&amp;gt;&lt;br&gt;&lt;/b&gt;&lt;/font&gt;&lt;/span&gt;&lt;/div&gt;&lt;div style=&quot;&quot;&gt;&lt;span style=&quot;background-color: initial;&quot;&gt;&lt;font color=&quot;#ff1e05&quot;&gt;&lt;b&gt;&lt;br&gt;&lt;/b&gt;&lt;/font&gt;&lt;/span&gt;&lt;/div&gt;&lt;div style=&quot;&quot;&gt;&lt;div style=&quot;border-color: var(--border-color);&quot;&gt;&lt;font style=&quot;border-color: var(--border-color);&quot; color=&quot;#ff1e05&quot;&gt;&lt;b style=&quot;border-color: var(--border-color);&quot;&gt;&lt;span style=&quot;white-space: pre;&quot;&gt; &lt;/span&gt;&amp;lt;constructor-arg&amp;gt;&lt;br style=&quot;border-color: var(--border-color);&quot;&gt;&lt;/b&gt;&lt;/font&gt;&lt;/div&gt;&lt;div style=&quot;border-color: var(--border-color);&quot;&gt;&lt;span style=&quot;border-color: var(--border-color); background-color: initial;&quot;&gt;&lt;font style=&quot;border-color: var(--border-color);&quot; color=&quot;#ff1e05&quot;&gt;&lt;b style=&quot;border-color: var(--border-color);&quot;&gt;&lt;span style=&quot;border-color: var(--border-color);&quot;&gt;&lt;/span&gt;&lt;span style=&quot;border-color: var(--border-color);&quot;&gt;&lt;/span&gt;&lt;span style=&quot;border-color: var(--border-color);&quot;&gt;&lt;/span&gt;&lt;span style=&quot;border-color: var(--border-color);&quot;&gt;&lt;/span&gt;&lt;span style=&quot;white-space: pre;&quot;&gt; &lt;/span&gt;&lt;span style=&quot;white-space: pre;&quot;&gt; &lt;/span&gt;&amp;lt;value&amp;gt; Dhruv &amp;lt;/value&amp;gt;&lt;br style=&quot;border-color: var(--border-color);&quot;&gt;&lt;/b&gt;&lt;/font&gt;&lt;/span&gt;&lt;/div&gt;&lt;div style=&quot;border-color: var(--border-color);&quot;&gt;&lt;font style=&quot;border-color: var(--border-color);&quot; color=&quot;#ff1e05&quot;&gt;&lt;b style=&quot;border-color: var(--border-color);&quot;&gt;&lt;span style=&quot;border-color: var(--border-color);&quot;&gt;&lt;/span&gt;&lt;span style=&quot;white-space: pre;&quot;&gt; &lt;/span&gt;&amp;lt;/&lt;/b&gt;&lt;/font&gt;&lt;span style=&quot;border-color: var(--border-color); background-color: initial;&quot;&gt;&lt;/span&gt;&lt;b style=&quot;border-color: var(--border-color); color: rgb(255, 30, 5);&quot;&gt;constructor-arg&lt;/b&gt;&lt;span style=&quot;border-color: var(--border-color); background-color: initial;&quot;&gt;&lt;font style=&quot;border-color: var(--border-color);&quot; color=&quot;#ff1e05&quot;&gt;&lt;b style=&quot;border-color: var(--border-color);&quot;&gt;&amp;gt;&lt;/b&gt;&lt;/font&gt;&lt;/span&gt;&lt;/div&gt;&lt;div style=&quot;border-color: var(--border-color);&quot;&gt;&lt;span style=&quot;border-color: var(--border-color); background-color: initial;&quot;&gt;&lt;font style=&quot;border-color: var(--border-color);&quot; color=&quot;#ff1e05&quot;&gt;&lt;b style=&quot;border-color: var(--border-color);&quot;&gt;&lt;br&gt;&lt;/b&gt;&lt;/font&gt;&lt;/span&gt;&lt;/div&gt;&lt;/div&gt;&lt;div style=&quot;&quot;&gt;&lt;span style=&quot;background-color: initial;&quot;&gt;&amp;lt;bean&amp;gt;&lt;/span&gt;&lt;/div&gt;&lt;div style=&quot;&quot;&gt;&amp;lt;/beans&amp;gt;&lt;/div&gt;" style="rounded=0;whiteSpace=wrap;html=1;strokeWidth=3;fontSize=24;fillColor=#FFFFFF;align=left;shadow=0;glass=0;strokeColor=#000000;" parent="1" vertex="1">
          <mxGeometry x="-310" y="3920" width="490" height="380" as="geometry" />
        </mxCell>
        <mxCell id="wLwZ-nhRfxtlHpbRHB-M-2" value="&lt;div style=&quot;&quot;&gt;&lt;span style=&quot;background-color: initial;&quot;&gt;&amp;lt;beans&amp;gt;&amp;nbsp;&lt;/span&gt;&lt;/div&gt;&lt;div style=&quot;&quot;&gt;&lt;span style=&quot;background-color: initial;&quot;&gt;&amp;lt;bean name=&quot;Student&quot; class=&quot;FQCN&quot;&amp;gt;&lt;/span&gt;&lt;/div&gt;&lt;div style=&quot;&quot;&gt;&lt;span style=&quot;background-color: initial;&quot;&gt;&lt;br&gt;&lt;/span&gt;&lt;/div&gt;&lt;div style=&quot;&quot;&gt;&lt;span style=&quot;background-color: initial;&quot;&gt;&lt;span style=&quot;&quot;&gt; &lt;/span&gt;&lt;span style=&quot;&quot;&gt; &lt;/span&gt;&lt;font color=&quot;#ff1e05&quot;&gt;&lt;b&gt;&lt;span style=&quot;white-space: pre;&quot;&gt; &lt;/span&gt;&amp;lt;constructor-arg&amp;nbsp; value=&quot;1&quot;&amp;nbsp; type=&quot;int&quot; /&amp;gt;&lt;br&gt;&lt;/b&gt;&lt;/font&gt;&lt;/span&gt;&lt;/div&gt;&lt;div style=&quot;&quot;&gt;&lt;br&gt;&lt;/div&gt;&lt;div style=&quot;&quot;&gt;&lt;div style=&quot;border-color: var(--border-color);&quot;&gt;&lt;font style=&quot;border-color: var(--border-color);&quot; color=&quot;#ff1e05&quot;&gt;&lt;b style=&quot;border-color: var(--border-color);&quot;&gt;&lt;span style=&quot;white-space: pre;&quot;&gt; &lt;/span&gt;&amp;lt;constructor-arg value=&quot;Dhruv&quot; /&amp;gt;&lt;br style=&quot;border-color: var(--border-color);&quot;&gt;&lt;/b&gt;&lt;/font&gt;&lt;/div&gt;&lt;div style=&quot;border-color: var(--border-color);&quot;&gt;&lt;span style=&quot;border-color: var(--border-color); background-color: initial;&quot;&gt;&lt;font style=&quot;border-color: var(--border-color);&quot; color=&quot;#ff1e05&quot;&gt;&lt;b style=&quot;border-color: var(--border-color);&quot;&gt;&lt;span style=&quot;border-color: var(--border-color);&quot;&gt;&lt;/span&gt;&lt;span style=&quot;border-color: var(--border-color);&quot;&gt;&lt;/span&gt;&lt;span style=&quot;border-color: var(--border-color);&quot;&gt;&lt;/span&gt;&lt;span style=&quot;border-color: var(--border-color);&quot;&gt;&lt;/span&gt;&lt;span style=&quot;white-space: pre;&quot;&gt; &lt;/span&gt;&lt;span style=&quot;white-space: pre;&quot;&gt; &lt;/span&gt;&lt;/b&gt;&lt;/font&gt;&lt;/span&gt;&lt;/div&gt;&lt;/div&gt;&lt;div style=&quot;&quot;&gt;&lt;span style=&quot;background-color: initial;&quot;&gt;&amp;lt;bean&amp;gt;&lt;/span&gt;&lt;/div&gt;&lt;div style=&quot;&quot;&gt;&amp;lt;/beans&amp;gt;&lt;/div&gt;" style="rounded=0;whiteSpace=wrap;html=1;strokeWidth=3;fontSize=24;fillColor=#FFFFFF;align=left;shadow=0;glass=0;strokeColor=#000000;" parent="1" vertex="1">
          <mxGeometry x="262" y="3975" width="552.5" height="270" as="geometry" />
        </mxCell>
        <mxCell id="wLwZ-nhRfxtlHpbRHB-M-3" value="&lt;div style=&quot;&quot;&gt;&lt;span style=&quot;background-color: initial;&quot;&gt;&amp;lt;beans&amp;gt;&amp;nbsp;&lt;/span&gt;&lt;/div&gt;&lt;div style=&quot;&quot;&gt;&lt;span style=&quot;background-color: initial;&quot;&gt;&lt;font color=&quot;#ff441f&quot;&gt;&lt;b&gt;&lt;span style=&quot;white-space: pre;&quot;&gt; &lt;/span&gt;&amp;lt;bean name=&quot;Student&quot; class=&quot;FQCN&quot; &amp;gt;&lt;/b&gt;&lt;/font&gt;&lt;/span&gt;&lt;/div&gt;&lt;div style=&quot;&quot;&gt;&lt;span style=&quot;background-color: initial;&quot;&gt;&amp;lt;/beans&amp;gt;&lt;/span&gt;&lt;br&gt;&lt;/div&gt;" style="rounded=0;whiteSpace=wrap;html=1;strokeWidth=3;fontSize=24;fillColor=#FFFFFF;align=left;shadow=0;glass=0;strokeColor=#000000;" parent="1" vertex="1">
          <mxGeometry x="-323.5" y="4360" width="1133.5" height="100" as="geometry" />
        </mxCell>
        <mxCell id="wLwZ-nhRfxtlHpbRHB-M-4" value="&lt;div style=&quot;&quot;&gt;&lt;span style=&quot;background-color: initial;&quot;&gt;&amp;lt;beans&amp;gt;&amp;nbsp;&lt;/span&gt;&lt;/div&gt;&lt;div style=&quot;&quot;&gt;&lt;span style=&quot;background-color: initial;&quot;&gt;&lt;br&gt;&lt;/span&gt;&lt;/div&gt;&lt;div style=&quot;&quot;&gt;&lt;span style=&quot;background-color: initial;&quot;&gt;&lt;span style=&quot;&quot;&gt; &lt;/span&gt;&amp;lt;bean name=&quot;Student&quot; class=&quot;FQCN&quot;&amp;gt;&lt;/span&gt;&lt;/div&gt;&lt;div style=&quot;&quot;&gt;&lt;b style=&quot;color: rgb(255, 30, 5); background-color: initial; border-color: var(--border-color);&quot;&gt;&lt;span style=&quot;white-space: pre;&quot;&gt; &lt;/span&gt;&amp;lt;constructor-arg&amp;nbsp; value=&quot;1&quot;/&amp;gt;&lt;/b&gt;&lt;/div&gt;&lt;blockquote style=&quot;margin: 0 0 0 40px; border: none; padding: 0px;&quot;&gt;&lt;div style=&quot;border-color: var(--border-color);&quot;&gt;&lt;div style=&quot;border-color: var(--border-color);&quot;&gt;&lt;font style=&quot;border-color: var(--border-color);&quot; color=&quot;#ff1e05&quot;&gt;&lt;b style=&quot;border-color: var(--border-color);&quot;&gt;&amp;nbsp; &amp;lt;constructor-arg value=&quot;Dhruv&quot; /&amp;gt;&lt;/b&gt;&lt;/font&gt;&lt;/div&gt;&lt;/div&gt;&lt;/blockquote&gt;&lt;blockquote style=&quot;margin: 0 0 0 40px; border: none; padding: 0px;&quot;&gt;&lt;div style=&quot;border-color: var(--border-color);&quot;&gt;&lt;div style=&quot;border-color: var(--border-color);&quot;&gt;&lt;font style=&quot;border-color: var(--border-color);&quot; color=&quot;#ff1e05&quot;&gt;&lt;b style=&quot;border-color: var(--border-color);&quot;&gt;&lt;div style=&quot;border-color: var(--border-color); color: rgb(0, 0, 0); font-weight: 400;&quot;&gt;&lt;div style=&quot;border-color: var(--border-color);&quot;&gt;&lt;font style=&quot;border-color: var(--border-color);&quot; color=&quot;#ff1e05&quot;&gt;&lt;b style=&quot;border-color: var(--border-color);&quot;&gt;&amp;nbsp; &amp;lt;constructor-arg ref=&quot;address&quot; /&amp;gt;&lt;/b&gt;&lt;/font&gt;&lt;/div&gt;&lt;/div&gt;&lt;/b&gt;&lt;/font&gt;&lt;/div&gt;&lt;/div&gt;&lt;/blockquote&gt;&lt;div style=&quot;&quot;&gt;&lt;span style=&quot;background-color: initial;&quot;&gt;&lt;span style=&quot;&quot;&gt; &lt;/span&gt;&amp;lt;/bean&amp;gt;&lt;/span&gt;&lt;/div&gt;&lt;div style=&quot;&quot;&gt;&lt;span style=&quot;background-color: initial;&quot;&gt;&lt;br&gt;&lt;/span&gt;&lt;/div&gt;&lt;div style=&quot;&quot;&gt;&lt;span style=&quot;background-color: initial;&quot;&gt;&lt;span style=&quot;&quot;&gt; &lt;/span&gt;&amp;lt;bean name=&quot;address&quot; class=&quot;FQCN&quot;&amp;gt;&lt;/span&gt;&lt;/div&gt;&lt;div style=&quot;&quot;&gt;&lt;div style=&quot;border-color: var(--border-color);&quot;&gt;&lt;font style=&quot;border-color: var(--border-color);&quot; color=&quot;#ff1e05&quot;&gt;&lt;b style=&quot;border-color: var(--border-color);&quot;&gt;&amp;nbsp; &amp;nbsp; &lt;span style=&quot;white-space: pre;&quot;&gt; &lt;/span&gt;&amp;lt;constructor-arg&amp;nbsp; value=&quot;Brampton&quot; /&amp;gt;&lt;/b&gt;&lt;/font&gt;&lt;/div&gt;&lt;div style=&quot;border-color: var(--border-color);&quot;&gt;&lt;div style=&quot;border-color: var(--border-color);&quot;&gt;&lt;font style=&quot;border-color: var(--border-color);&quot; color=&quot;#ff1e05&quot;&gt;&lt;b style=&quot;border-color: var(--border-color);&quot;&gt;&lt;span style=&quot;border-color: var(--border-color);&quot;&gt; &lt;/span&gt;&lt;span style=&quot;white-space: pre;&quot;&gt; &lt;/span&gt;&amp;lt;constructor-arg value=&quot;ON&quot; /&amp;gt;&lt;/b&gt;&lt;/font&gt;&lt;/div&gt;&lt;/div&gt;&lt;/div&gt;&lt;div style=&quot;&quot;&gt;&lt;span style=&quot;background-color: initial;&quot;&gt;&amp;lt;/bean&amp;gt;&lt;/span&gt;&lt;/div&gt;&lt;div style=&quot;&quot;&gt;&lt;span style=&quot;background-color: initial;&quot;&gt;&lt;br&gt;&lt;/span&gt;&lt;/div&gt;&lt;div style=&quot;&quot;&gt;&amp;lt;/beans&amp;gt;&lt;/div&gt;" style="rounded=0;whiteSpace=wrap;html=1;strokeWidth=3;fontSize=24;fillColor=#FFFFFF;align=left;shadow=0;glass=0;strokeColor=#000000;" parent="1" vertex="1">
          <mxGeometry x="-40" y="4550" width="600" height="410" as="geometry" />
        </mxCell>
        <mxCell id="CjNejBbu1n0jWAS8T4GK-2" value="&lt;div style=&quot;&quot;&gt;&lt;span style=&quot;background-color: initial;&quot;&gt;&amp;lt;beans&amp;gt;&amp;nbsp;&lt;/span&gt;&lt;/div&gt;&lt;div style=&quot;&quot;&gt;&lt;span style=&quot;background-color: initial;&quot;&gt;&amp;lt;bean name=&quot;sum&quot; class=&quot;FQCN&quot;&amp;gt;&lt;/span&gt;&lt;/div&gt;&lt;div style=&quot;&quot;&gt;&lt;span style=&quot;background-color: initial;&quot;&gt;&lt;br&gt;&lt;/span&gt;&lt;/div&gt;&lt;div style=&quot;&quot;&gt;&lt;span style=&quot;background-color: initial;&quot;&gt;&lt;span style=&quot;&quot;&gt; &lt;/span&gt;&lt;span style=&quot;&quot;&gt; &lt;/span&gt;&lt;font color=&quot;#ff1e05&quot;&gt;&lt;b&gt;&lt;span style=&quot;white-space: pre;&quot;&gt; &lt;/span&gt;&amp;lt;constructor-arg&amp;nbsp; value=&quot;5&quot;&amp;nbsp; type=&quot;int&quot; /&amp;gt;&lt;br&gt;&lt;/b&gt;&lt;/font&gt;&lt;/span&gt;&lt;/div&gt;&lt;div style=&quot;&quot;&gt;&lt;br&gt;&lt;/div&gt;&lt;div style=&quot;&quot;&gt;&lt;div style=&quot;border-color: var(--border-color);&quot;&gt;&lt;font style=&quot;border-color: var(--border-color);&quot; color=&quot;#ff1e05&quot;&gt;&lt;b style=&quot;border-color: var(--border-color);&quot;&gt;&lt;span style=&quot;white-space: pre;&quot;&gt; &lt;/span&gt;&amp;lt;constructor-arg value=&quot;5&quot; type=&quot;int&quot; /&amp;gt;&lt;br style=&quot;border-color: var(--border-color);&quot;&gt;&lt;/b&gt;&lt;/font&gt;&lt;/div&gt;&lt;div style=&quot;border-color: var(--border-color);&quot;&gt;&lt;span style=&quot;border-color: var(--border-color); background-color: initial;&quot;&gt;&lt;font style=&quot;border-color: var(--border-color);&quot; color=&quot;#ff1e05&quot;&gt;&lt;b style=&quot;border-color: var(--border-color);&quot;&gt;&lt;span style=&quot;border-color: var(--border-color);&quot;&gt;&lt;/span&gt;&lt;span style=&quot;border-color: var(--border-color);&quot;&gt;&lt;/span&gt;&lt;span style=&quot;border-color: var(--border-color);&quot;&gt;&lt;/span&gt;&lt;span style=&quot;border-color: var(--border-color);&quot;&gt;&lt;/span&gt;&lt;span style=&quot;white-space: pre;&quot;&gt; &lt;/span&gt;&lt;span style=&quot;white-space: pre;&quot;&gt; &lt;/span&gt;&lt;/b&gt;&lt;/font&gt;&lt;/span&gt;&lt;/div&gt;&lt;/div&gt;&lt;div style=&quot;&quot;&gt;&lt;span style=&quot;background-color: initial;&quot;&gt;&amp;lt;bean&amp;gt;&lt;/span&gt;&lt;/div&gt;&lt;div style=&quot;&quot;&gt;&amp;lt;/beans&amp;gt;&lt;/div&gt;" style="rounded=0;whiteSpace=wrap;html=1;strokeWidth=3;fontSize=24;fillColor=#FFFFFF;align=left;shadow=0;glass=0;strokeColor=#000000;" parent="1" vertex="1">
          <mxGeometry x="-2.5" y="5080" width="492.5" height="270" as="geometry" />
        </mxCell>
        <mxCell id="CjNejBbu1n0jWAS8T4GK-3" value="&lt;div style=&quot;&quot;&gt;&lt;span style=&quot;background-color: initial;&quot;&gt;&amp;lt;beans&amp;gt;&amp;nbsp;&lt;/span&gt;&lt;/div&gt;&lt;div style=&quot;&quot;&gt;&lt;span style=&quot;background-color: initial;&quot;&gt;&amp;lt;bean name=&quot;sum&quot; class=&quot;FQCN&quot;&amp;gt;&lt;/span&gt;&lt;/div&gt;&lt;div style=&quot;&quot;&gt;&lt;span style=&quot;background-color: initial;&quot;&gt;&lt;br&gt;&lt;/span&gt;&lt;/div&gt;&lt;div style=&quot;&quot;&gt;&lt;span style=&quot;background-color: initial;&quot;&gt;&lt;span style=&quot;&quot;&gt; &lt;/span&gt;&lt;span style=&quot;&quot;&gt; &lt;/span&gt;&lt;font color=&quot;#ff1e05&quot;&gt;&lt;b&gt;&lt;span style=&quot;white-space: pre;&quot;&gt; &lt;/span&gt;&amp;lt;constructor-arg&amp;nbsp; value=&quot;5&quot;&amp;nbsp; type=&quot;double&quot; index=&quot;1&quot;/&amp;gt;&lt;br&gt;&lt;/b&gt;&lt;/font&gt;&lt;/span&gt;&lt;/div&gt;&lt;div style=&quot;&quot;&gt;&lt;br&gt;&lt;/div&gt;&lt;div style=&quot;&quot;&gt;&lt;div style=&quot;border-color: var(--border-color);&quot;&gt;&lt;font style=&quot;border-color: var(--border-color);&quot; color=&quot;#ff1e05&quot;&gt;&lt;b style=&quot;border-color: var(--border-color);&quot;&gt;&lt;span style=&quot;white-space: pre;&quot;&gt; &lt;/span&gt;&amp;lt;constructor-arg value=&quot;5&quot; type=&quot;double&quot; index=&quot;0&quot;/&amp;gt;&lt;br style=&quot;border-color: var(--border-color);&quot;&gt;&lt;/b&gt;&lt;/font&gt;&lt;/div&gt;&lt;div style=&quot;border-color: var(--border-color);&quot;&gt;&lt;span style=&quot;border-color: var(--border-color); background-color: initial;&quot;&gt;&lt;font style=&quot;border-color: var(--border-color);&quot; color=&quot;#ff1e05&quot;&gt;&lt;b style=&quot;border-color: var(--border-color);&quot;&gt;&lt;span style=&quot;border-color: var(--border-color);&quot;&gt;&lt;/span&gt;&lt;span style=&quot;border-color: var(--border-color);&quot;&gt;&lt;/span&gt;&lt;span style=&quot;border-color: var(--border-color);&quot;&gt;&lt;/span&gt;&lt;span style=&quot;border-color: var(--border-color);&quot;&gt;&lt;/span&gt;&lt;span style=&quot;white-space: pre;&quot;&gt; &lt;/span&gt;&lt;span style=&quot;white-space: pre;&quot;&gt; &lt;/span&gt;&lt;/b&gt;&lt;/font&gt;&lt;/span&gt;&lt;/div&gt;&lt;/div&gt;&lt;div style=&quot;&quot;&gt;&lt;span style=&quot;background-color: initial;&quot;&gt;&amp;lt;bean&amp;gt;&lt;/span&gt;&lt;/div&gt;&lt;div style=&quot;&quot;&gt;&amp;lt;/beans&amp;gt;&lt;/div&gt;" style="rounded=0;whiteSpace=wrap;html=1;strokeWidth=3;fontSize=24;fillColor=#FFFFFF;align=left;shadow=0;glass=0;strokeColor=#000000;" parent="1" vertex="1">
          <mxGeometry x="516.88" y="5080" width="653.12" height="270" as="geometry" />
        </mxCell>
        <mxCell id="CjNejBbu1n0jWAS8T4GK-4" value="&lt;div style=&quot;&quot;&gt;&lt;span style=&quot;background-color: initial;&quot;&gt;&amp;lt;beans&amp;gt;&amp;nbsp;&lt;/span&gt;&lt;/div&gt;&lt;div style=&quot;&quot;&gt;&lt;span style=&quot;background-color: initial;&quot;&gt;&amp;lt;bean name=&quot;sum&quot; class=&quot;FQCN&quot;&amp;gt;&lt;/span&gt;&lt;/div&gt;&lt;div style=&quot;&quot;&gt;&lt;span style=&quot;background-color: initial;&quot;&gt;&lt;br&gt;&lt;/span&gt;&lt;/div&gt;&lt;div style=&quot;&quot;&gt;&lt;span style=&quot;background-color: initial;&quot;&gt;&lt;span style=&quot;&quot;&gt; &lt;/span&gt;&lt;span style=&quot;&quot;&gt; &lt;/span&gt;&lt;font color=&quot;#ff1e05&quot;&gt;&lt;b&gt;&lt;span style=&quot;white-space: pre;&quot;&gt; &lt;/span&gt;&amp;lt;constructor-arg&amp;nbsp; value=&quot;5&quot; /&amp;gt;&lt;br&gt;&lt;/b&gt;&lt;/font&gt;&lt;/span&gt;&lt;/div&gt;&lt;div style=&quot;&quot;&gt;&lt;br&gt;&lt;/div&gt;&lt;div style=&quot;&quot;&gt;&lt;div style=&quot;border-color: var(--border-color);&quot;&gt;&lt;font style=&quot;border-color: var(--border-color);&quot; color=&quot;#ff1e05&quot;&gt;&lt;b style=&quot;border-color: var(--border-color);&quot;&gt;&lt;span style=&quot;white-space: pre;&quot;&gt; &lt;/span&gt;&amp;lt;constructor-arg value=&quot;5&quot; /&amp;gt;&lt;br style=&quot;border-color: var(--border-color);&quot;&gt;&lt;/b&gt;&lt;/font&gt;&lt;/div&gt;&lt;div style=&quot;border-color: var(--border-color);&quot;&gt;&lt;span style=&quot;border-color: var(--border-color); background-color: initial;&quot;&gt;&lt;font style=&quot;border-color: var(--border-color);&quot; color=&quot;#ff1e05&quot;&gt;&lt;b style=&quot;border-color: var(--border-color);&quot;&gt;&lt;span style=&quot;border-color: var(--border-color);&quot;&gt;&lt;/span&gt;&lt;span style=&quot;border-color: var(--border-color);&quot;&gt;&lt;/span&gt;&lt;span style=&quot;border-color: var(--border-color);&quot;&gt;&lt;/span&gt;&lt;span style=&quot;border-color: var(--border-color);&quot;&gt;&lt;/span&gt;&lt;span style=&quot;white-space: pre;&quot;&gt; &lt;/span&gt;&lt;span style=&quot;white-space: pre;&quot;&gt; &lt;/span&gt;&lt;/b&gt;&lt;/font&gt;&lt;/span&gt;&lt;/div&gt;&lt;/div&gt;&lt;div style=&quot;&quot;&gt;&lt;span style=&quot;background-color: initial;&quot;&gt;&amp;lt;bean&amp;gt;&lt;/span&gt;&lt;/div&gt;&lt;div style=&quot;&quot;&gt;&amp;lt;/beans&amp;gt;&lt;/div&gt;" style="rounded=0;whiteSpace=wrap;html=1;strokeWidth=3;fontSize=24;fillColor=#FFFFFF;align=left;shadow=0;glass=0;strokeColor=#000000;" parent="1" vertex="1">
          <mxGeometry y="5360" width="490" height="270" as="geometry" />
        </mxCell>
        <mxCell id="CjNejBbu1n0jWAS8T4GK-5" value="" style="rounded=0;whiteSpace=wrap;html=1;fillColor=#D5E8D4;" parent="1" vertex="1">
          <mxGeometry x="170" y="5940" width="1360" height="240" as="geometry" />
        </mxCell>
        <mxCell id="CjNejBbu1n0jWAS8T4GK-6" value="&lt;font style=&quot;font-size: 48px;&quot;&gt;1&lt;/font&gt;" style="rounded=0;whiteSpace=wrap;html=1;" parent="1" vertex="1">
          <mxGeometry x="467.5" y="5940" width="120" height="240" as="geometry" />
        </mxCell>
        <mxCell id="CjNejBbu1n0jWAS8T4GK-7" value="&lt;font style=&quot;font-size: 48px;&quot;&gt;4&lt;/font&gt;" style="rounded=0;whiteSpace=wrap;html=1;" parent="1" vertex="1">
          <mxGeometry x="1100" y="5940" width="120" height="240" as="geometry" />
        </mxCell>
        <mxCell id="CjNejBbu1n0jWAS8T4GK-8" value="&lt;font style=&quot;font-size: 48px;&quot;&gt;3&lt;/font&gt;" style="rounded=0;whiteSpace=wrap;html=1;" parent="1" vertex="1">
          <mxGeometry x="872.5" y="5940" width="120" height="240" as="geometry" />
        </mxCell>
        <mxCell id="CjNejBbu1n0jWAS8T4GK-9" value="&lt;font style=&quot;font-size: 48px;&quot;&gt;2&lt;/font&gt;" style="rounded=0;whiteSpace=wrap;html=1;" parent="1" vertex="1">
          <mxGeometry x="658" y="5940" width="120" height="240" as="geometry" />
        </mxCell>
        <mxCell id="CjNejBbu1n0jWAS8T4GK-10" value="&lt;font style=&quot;font-size: 48px;&quot;&gt;5&lt;/font&gt;" style="rounded=0;whiteSpace=wrap;html=1;" parent="1" vertex="1">
          <mxGeometry x="1320" y="5940" width="120" height="240" as="geometry" />
        </mxCell>
        <mxCell id="CjNejBbu1n0jWAS8T4GK-11" value="&lt;font style=&quot;font-size: 48px;&quot;&gt;0&lt;/font&gt;" style="rounded=0;whiteSpace=wrap;html=1;" parent="1" vertex="1">
          <mxGeometry x="260" y="5940" width="120" height="240" as="geometry" />
        </mxCell>
        <mxCell id="CjNejBbu1n0jWAS8T4GK-12" value="" style="rounded=1;whiteSpace=wrap;html=1;fontSize=48;strokeWidth=9;" parent="1" vertex="1">
          <mxGeometry x="320" y="6470" width="1280" height="810" as="geometry" />
        </mxCell>
        <mxCell id="CjNejBbu1n0jWAS8T4GK-17" style="edgeStyle=orthogonalEdgeStyle;rounded=0;orthogonalLoop=1;jettySize=auto;html=1;entryX=0.5;entryY=0;entryDx=0;entryDy=0;fontSize=48;strokeWidth=4;" parent="1" source="CjNejBbu1n0jWAS8T4GK-13" target="CjNejBbu1n0jWAS8T4GK-15" edge="1">
          <mxGeometry relative="1" as="geometry" />
        </mxCell>
        <mxCell id="CjNejBbu1n0jWAS8T4GK-13" value="Create" style="ellipse;whiteSpace=wrap;html=1;aspect=fixed;fontSize=48;fillColor=#f8cecc;strokeColor=#b85450;strokeWidth=4;" parent="1" vertex="1">
          <mxGeometry x="453.25" y="6500" width="170" height="170" as="geometry" />
        </mxCell>
        <mxCell id="CjNejBbu1n0jWAS8T4GK-18" style="edgeStyle=orthogonalEdgeStyle;rounded=0;orthogonalLoop=1;jettySize=auto;html=1;strokeWidth=4;fontSize=48;" parent="1" source="CjNejBbu1n0jWAS8T4GK-15" target="CjNejBbu1n0jWAS8T4GK-16" edge="1">
          <mxGeometry relative="1" as="geometry" />
        </mxCell>
        <mxCell id="CjNejBbu1n0jWAS8T4GK-15" value="Injet" style="ellipse;whiteSpace=wrap;html=1;aspect=fixed;fontSize=48;fillColor=#fff2cc;strokeColor=#d6b656;strokeWidth=4;" parent="1" vertex="1">
          <mxGeometry x="453.25" y="6760" width="170" height="170" as="geometry" />
        </mxCell>
        <mxCell id="CjNejBbu1n0jWAS8T4GK-29" value="" style="edgeStyle=orthogonalEdgeStyle;rounded=0;orthogonalLoop=1;jettySize=auto;html=1;strokeWidth=4;fontSize=48;" parent="1" source="CjNejBbu1n0jWAS8T4GK-16" target="CjNejBbu1n0jWAS8T4GK-19" edge="1">
          <mxGeometry relative="1" as="geometry" />
        </mxCell>
        <mxCell id="CjNejBbu1n0jWAS8T4GK-16" value="Init" style="ellipse;whiteSpace=wrap;html=1;aspect=fixed;fontSize=48;fillColor=#dae8fc;strokeColor=#6c8ebf;strokeWidth=4;" parent="1" vertex="1">
          <mxGeometry x="453.25" y="7020" width="170" height="170" as="geometry" />
        </mxCell>
        <mxCell id="CjNejBbu1n0jWAS8T4GK-30" style="edgeStyle=orthogonalEdgeStyle;rounded=0;orthogonalLoop=1;jettySize=auto;html=1;entryX=0;entryY=0.5;entryDx=0;entryDy=0;strokeWidth=4;fontSize=48;" parent="1" source="CjNejBbu1n0jWAS8T4GK-19" target="CjNejBbu1n0jWAS8T4GK-21" edge="1">
          <mxGeometry relative="1" as="geometry" />
        </mxCell>
        <mxCell id="CjNejBbu1n0jWAS8T4GK-19" value="Read/&lt;br&gt;Use" style="ellipse;whiteSpace=wrap;html=1;aspect=fixed;fontSize=48;fillColor=#d5e8d4;strokeColor=#82b366;strokeWidth=4;" parent="1" vertex="1">
          <mxGeometry x="800" y="7020" width="170" height="170" as="geometry" />
        </mxCell>
        <mxCell id="CjNejBbu1n0jWAS8T4GK-21" value="Destroy" style="ellipse;whiteSpace=wrap;html=1;aspect=fixed;fontSize=48;fillColor=#e1d5e7;strokeColor=#9673a6;strokeWidth=4;" parent="1" vertex="1">
          <mxGeometry x="1150" y="7020" width="170" height="170" as="geometry" />
        </mxCell>
        <mxCell id="CjNejBbu1n0jWAS8T4GK-37" style="edgeStyle=orthogonalEdgeStyle;rounded=0;orthogonalLoop=1;jettySize=auto;html=1;entryX=1;entryY=0.5;entryDx=0;entryDy=0;strokeWidth=10;fontSize=48;fillColor=#1ba1e2;strokeColor=#006EAF;" parent="1" source="CjNejBbu1n0jWAS8T4GK-31" target="CjNejBbu1n0jWAS8T4GK-13" edge="1">
          <mxGeometry relative="1" as="geometry" />
        </mxCell>
        <mxCell id="CjNejBbu1n0jWAS8T4GK-31" value="" style="whiteSpace=wrap;html=1;aspect=fixed;strokeWidth=4;fontSize=48;fillColor=#D5E8D4;" parent="1" vertex="1">
          <mxGeometry x="992.5" y="6510" width="370" height="370" as="geometry" />
        </mxCell>
        <mxCell id="CjNejBbu1n0jWAS8T4GK-34" value="Bean" style="rounded=1;whiteSpace=wrap;html=1;strokeWidth=4;fontSize=48;fillColor=#d80073;fontColor=#ffffff;strokeColor=#A50040;" parent="1" vertex="1">
          <mxGeometry x="1050" y="6600" width="120" height="60" as="geometry" />
        </mxCell>
        <mxCell id="CjNejBbu1n0jWAS8T4GK-35" value="XML" style="rounded=1;whiteSpace=wrap;html=1;strokeWidth=4;fontSize=48;fillColor=#a20025;fontColor=#ffffff;strokeColor=#6F0000;" parent="1" vertex="1">
          <mxGeometry x="1050" y="6710" width="120" height="60" as="geometry" />
        </mxCell>
        <mxCell id="CjNejBbu1n0jWAS8T4GK-36" value="IOC" style="rounded=1;whiteSpace=wrap;html=1;strokeWidth=4;fontSize=48;fillColor=#1ba1e2;strokeColor=#006EAF;fontColor=#ffffff;" parent="1" vertex="1">
          <mxGeometry x="995.5" y="6800" width="367" height="80" as="geometry" />
        </mxCell>
        <mxCell id="CjNejBbu1n0jWAS8T4GK-38" value="" style="rounded=1;whiteSpace=wrap;html=1;strokeWidth=9;fontSize=48;" parent="1" vertex="1">
          <mxGeometry x="-190" y="7550" width="1660" height="890" as="geometry" />
        </mxCell>
        <mxCell id="CjNejBbu1n0jWAS8T4GK-40" value="&lt;font style=&quot;font-size: 65px;&quot;&gt;&lt;b&gt;Auto-wiring&lt;/b&gt;&amp;nbsp;&lt;/font&gt;" style="rounded=1;whiteSpace=wrap;html=1;strokeWidth=4;fontSize=48;fillColor=#D5E8D4;" parent="1" vertex="1">
          <mxGeometry x="408.75" y="7600" width="394.5" height="170" as="geometry" />
        </mxCell>
        <mxCell id="CjNejBbu1n0jWAS8T4GK-43" value="" style="sketch=0;outlineConnect=0;fontColor=#232F3E;gradientColor=none;fillColor=#D45B07;strokeColor=none;dashed=0;verticalLabelPosition=bottom;verticalAlign=top;align=center;html=1;fontSize=12;fontStyle=0;aspect=fixed;pointerEvents=1;shape=mxgraph.aws4.container_1;strokeWidth=4;" parent="1" vertex="1">
          <mxGeometry x="1030" y="8010" width="377" height="243.48" as="geometry" />
        </mxCell>
        <mxCell id="CjNejBbu1n0jWAS8T4GK-44" value="&lt;b&gt;&lt;font style=&quot;font-size: 65px;&quot;&gt;IOC&lt;/font&gt;&lt;/b&gt;" style="text;html=1;strokeColor=none;fillColor=none;align=center;verticalAlign=middle;whiteSpace=wrap;rounded=0;fontSize=48;" parent="1" vertex="1">
          <mxGeometry x="1130" y="8280" width="210" height="90" as="geometry" />
        </mxCell>
        <mxCell id="CjNejBbu1n0jWAS8T4GK-45" value="&lt;b&gt;Manually&lt;/b&gt;" style="endArrow=classic;html=1;rounded=0;strokeWidth=10;fontSize=65;exitX=0;exitY=1;exitDx=0;exitDy=0;entryX=0.5;entryY=0;entryDx=0;entryDy=0;entryPerimeter=0;" parent="1" source="CjNejBbu1n0jWAS8T4GK-40" edge="1">
          <mxGeometry width="50" height="50" relative="1" as="geometry">
            <mxPoint x="290" y="8010" as="sourcePoint" />
            <mxPoint x="100" y="8010" as="targetPoint" />
          </mxGeometry>
        </mxCell>
        <mxCell id="CjNejBbu1n0jWAS8T4GK-46" value="" style="endArrow=classic;html=1;rounded=0;strokeWidth=10;fontSize=65;exitX=1;exitY=1;exitDx=0;exitDy=0;" parent="1" source="CjNejBbu1n0jWAS8T4GK-40" target="CjNejBbu1n0jWAS8T4GK-43" edge="1">
          <mxGeometry width="50" height="50" relative="1" as="geometry">
            <mxPoint x="780" y="7970" as="sourcePoint" />
            <mxPoint x="830" y="7920" as="targetPoint" />
          </mxGeometry>
        </mxCell>
        <mxCell id="CjNejBbu1n0jWAS8T4GK-51" value="&lt;b&gt;Automatically&lt;/b&gt;" style="edgeLabel;html=1;align=center;verticalAlign=middle;resizable=0;points=[];fontSize=65;" parent="CjNejBbu1n0jWAS8T4GK-46" vertex="1" connectable="0">
          <mxGeometry x="-0.2671" y="-3" relative="1" as="geometry">
            <mxPoint x="27" y="24" as="offset" />
          </mxGeometry>
        </mxCell>
        <mxCell id="CjNejBbu1n0jWAS8T4GK-49" value="" style="sketch=0;aspect=fixed;html=1;points=[];align=center;image;fontSize=12;image=img/lib/mscae/Person.svg;strokeWidth=4;fillColor=#D5E8D4;" parent="1" vertex="1">
          <mxGeometry y="8010" width="192.4" height="260" as="geometry" />
        </mxCell>
        <mxCell id="CjNejBbu1n0jWAS8T4GK-50" value="&lt;b&gt;Developers&lt;/b&gt;" style="text;html=1;strokeColor=none;fillColor=none;align=center;verticalAlign=middle;whiteSpace=wrap;rounded=0;fontSize=65;" parent="1" vertex="1">
          <mxGeometry x="-130" y="8305" width="414" height="80" as="geometry" />
        </mxCell>
      </root>
    </mxGraphModel>
  </diagram>
  <diagram id="m5y1WV7J73xjDUvThUlw" name="Servlet">
    <mxGraphModel dx="1781" dy="561" grid="1" gridSize="10" guides="1" tooltips="1" connect="1" arrows="1" fold="1" page="1" pageScale="1" pageWidth="827" pageHeight="1169" math="0" shadow="0">
      <root>
        <mxCell id="0" />
        <mxCell id="1" parent="0" />
        <mxCell id="BQ7aynYZEXd5gLbRlKET-4" value="" style="rounded=1;whiteSpace=wrap;html=1;strokeWidth=4;" parent="1" vertex="1">
          <mxGeometry x="870" y="710" width="490" height="470" as="geometry" />
        </mxCell>
        <mxCell id="g6I6Df8Rz7oZ_L2CIvBZ-1" value="" style="rounded=1;whiteSpace=wrap;html=1;strokeWidth=4;" parent="1" vertex="1">
          <mxGeometry x="180" y="150" width="770" height="320" as="geometry" />
        </mxCell>
        <mxCell id="g6I6Df8Rz7oZ_L2CIvBZ-20" style="edgeStyle=orthogonalEdgeStyle;rounded=0;orthogonalLoop=1;jettySize=auto;html=1;entryX=0;entryY=0.5;entryDx=0;entryDy=0;strokeColor=#FF0D55;strokeWidth=4;fontSize=23;fontColor=#FFFFFF;" parent="1" source="g6I6Df8Rz7oZ_L2CIvBZ-4" target="g6I6Df8Rz7oZ_L2CIvBZ-16" edge="1">
          <mxGeometry relative="1" as="geometry" />
        </mxCell>
        <mxCell id="g6I6Df8Rz7oZ_L2CIvBZ-21" value="&lt;font size=&quot;1&quot; color=&quot;#000000&quot;&gt;&lt;b style=&quot;font-size: 15px;&quot;&gt;Dynamic&lt;/b&gt;&lt;/font&gt;" style="edgeLabel;html=1;align=center;verticalAlign=middle;resizable=0;points=[];fontSize=23;fontColor=#FFFFFF;" parent="g6I6Df8Rz7oZ_L2CIvBZ-20" vertex="1" connectable="0">
          <mxGeometry x="-0.2853" y="3" relative="1" as="geometry">
            <mxPoint as="offset" />
          </mxGeometry>
        </mxCell>
        <mxCell id="g6I6Df8Rz7oZ_L2CIvBZ-4" value="" style="sketch=0;outlineConnect=0;fontColor=#232F3E;gradientColor=none;fillColor=#FA6800;strokeColor=none;dashed=0;verticalLabelPosition=bottom;verticalAlign=top;align=center;html=1;fontSize=12;fontStyle=0;aspect=fixed;pointerEvents=1;shape=mxgraph.aws4.client;strokeWidth=4;" parent="1" vertex="1">
          <mxGeometry x="200" y="248.75" width="94.94" height="92.5" as="geometry" />
        </mxCell>
        <mxCell id="g6I6Df8Rz7oZ_L2CIvBZ-14" value="&lt;b&gt;Client&lt;/b&gt;" style="text;html=1;strokeColor=none;fillColor=none;align=center;verticalAlign=middle;whiteSpace=wrap;rounded=0;fontSize=17;fontColor=#006600;" parent="1" vertex="1">
          <mxGeometry x="217" y="346" width="60" height="30" as="geometry" />
        </mxCell>
        <mxCell id="g6I6Df8Rz7oZ_L2CIvBZ-16" value="" style="rounded=1;arcSize=10;strokeColor=#E1D5E7;fillColor=#DBDBDB;gradientColor=none;strokeWidth=4;fontSize=17;fontColor=#006600;" parent="1" vertex="1">
          <mxGeometry x="550" y="230" width="320" height="130" as="geometry" />
        </mxCell>
        <mxCell id="g6I6Df8Rz7oZ_L2CIvBZ-19" style="edgeStyle=orthogonalEdgeStyle;rounded=0;orthogonalLoop=1;jettySize=auto;html=1;strokeColor=#FF0D55;strokeWidth=4;fontSize=23;fontColor=#FFFFFF;" parent="1" source="g6I6Df8Rz7oZ_L2CIvBZ-17" target="g6I6Df8Rz7oZ_L2CIvBZ-4" edge="1">
          <mxGeometry relative="1" as="geometry">
            <Array as="points">
              <mxPoint x="790" y="390" />
              <mxPoint x="290" y="390" />
            </Array>
          </mxGeometry>
        </mxCell>
        <mxCell id="g6I6Df8Rz7oZ_L2CIvBZ-23" value="&lt;font style=&quot;font-size: 15px;&quot;&gt;&lt;b&gt;HTML [Response]&lt;/b&gt;&lt;/font&gt;" style="edgeLabel;html=1;align=center;verticalAlign=middle;resizable=0;points=[];fontSize=23;fontColor=#000000;" parent="g6I6Df8Rz7oZ_L2CIvBZ-19" vertex="1" connectable="0">
          <mxGeometry x="0.0958" relative="1" as="geometry">
            <mxPoint x="-41" as="offset" />
          </mxGeometry>
        </mxCell>
        <mxCell id="g6I6Df8Rz7oZ_L2CIvBZ-17" value="&lt;font size=&quot;1&quot; color=&quot;#ffffff&quot;&gt;&lt;b style=&quot;font-size: 23px;&quot;&gt;Servlet&lt;br&gt;&lt;br&gt;&lt;br&gt;&lt;/b&gt;&lt;/font&gt;" style="rounded=1;whiteSpace=wrap;html=1;strokeWidth=4;fontSize=17;fontColor=#006600;fillColor=#FA6800;" parent="1" vertex="1">
          <mxGeometry x="740" y="245" width="120" height="90" as="geometry" />
        </mxCell>
        <mxCell id="g6I6Df8Rz7oZ_L2CIvBZ-22" style="edgeStyle=orthogonalEdgeStyle;rounded=0;orthogonalLoop=1;jettySize=auto;html=1;entryX=0;entryY=0.5;entryDx=0;entryDy=0;strokeColor=#FF0D55;strokeWidth=4;fontSize=23;fontColor=#FFFFFF;" parent="1" source="g6I6Df8Rz7oZ_L2CIvBZ-18" target="g6I6Df8Rz7oZ_L2CIvBZ-17" edge="1">
          <mxGeometry relative="1" as="geometry" />
        </mxCell>
        <mxCell id="g6I6Df8Rz7oZ_L2CIvBZ-18" value="&lt;font style=&quot;font-size: 18px;&quot;&gt;&lt;b&gt;Static&lt;br&gt;Content&lt;/b&gt;&lt;br&gt;&lt;/font&gt;" style="rounded=1;whiteSpace=wrap;html=1;strokeWidth=4;fontSize=23;fontColor=#ffffff;fillColor=#60a917;strokeColor=#000000;" parent="1" vertex="1">
          <mxGeometry x="590" y="260" width="90" height="60" as="geometry" />
        </mxCell>
        <mxCell id="g6I6Df8Rz7oZ_L2CIvBZ-24" value="&lt;b&gt;&lt;font style=&quot;font-size: 16px;&quot;&gt;WebContainer&lt;/font&gt;&lt;/b&gt;" style="rounded=1;whiteSpace=wrap;html=1;strokeColor=#000000;strokeWidth=4;fontSize=18;fontColor=#ffffff;fillColor=#d80073;" parent="1" vertex="1">
          <mxGeometry x="810" y="180" width="120" height="20" as="geometry" />
        </mxCell>
        <mxCell id="g6I6Df8Rz7oZ_L2CIvBZ-25" value="" style="endArrow=classic;html=1;rounded=0;strokeColor=#FF0D55;strokeWidth=4;fontSize=18;fontColor=#000000;entryX=0.5;entryY=0;entryDx=0;entryDy=0;exitX=0.5;exitY=1;exitDx=0;exitDy=0;" parent="1" source="g6I6Df8Rz7oZ_L2CIvBZ-24" target="g6I6Df8Rz7oZ_L2CIvBZ-17" edge="1">
          <mxGeometry width="50" height="50" relative="1" as="geometry">
            <mxPoint x="710" y="220" as="sourcePoint" />
            <mxPoint x="760" y="170" as="targetPoint" />
          </mxGeometry>
        </mxCell>
        <mxCell id="g6I6Df8Rz7oZ_L2CIvBZ-26" value="" style="verticalLabelPosition=bottom;html=1;verticalAlign=top;strokeWidth=10;align=center;outlineConnect=0;dashed=0;outlineConnect=0;shape=mxgraph.aws3d.file;aspect=fixed;strokeColor=#292929;fontSize=16;fontColor=#000000;fillColor=#FFFFFF;" parent="1" vertex="1">
          <mxGeometry x="820" y="275" width="19.63" height="45" as="geometry" />
        </mxCell>
        <mxCell id="g6I6Df8Rz7oZ_L2CIvBZ-27" value="" style="endArrow=classic;html=1;rounded=0;strokeColor=#FF0D55;strokeWidth=4;fontSize=16;fontColor=#000000;" parent="1" target="g6I6Df8Rz7oZ_L2CIvBZ-26" edge="1">
          <mxGeometry width="50" height="50" relative="1" as="geometry">
            <mxPoint x="850" y="440" as="sourcePoint" />
            <mxPoint x="900" y="390" as="targetPoint" />
          </mxGeometry>
        </mxCell>
        <mxCell id="g6I6Df8Rz7oZ_L2CIvBZ-28" value="&lt;b&gt;&lt;font style=&quot;font-size: 16px;&quot;&gt;Diployement&amp;nbsp;&lt;br&gt;Discripter&lt;br&gt;&lt;/font&gt;&lt;/b&gt;" style="rounded=1;whiteSpace=wrap;html=1;strokeColor=#000000;strokeWidth=4;fontSize=18;fontColor=#ffffff;fillColor=#d80073;" parent="1" vertex="1">
          <mxGeometry x="780" y="410" width="120" height="50" as="geometry" />
        </mxCell>
        <mxCell id="BQ7aynYZEXd5gLbRlKET-1" value="&lt;b&gt;&lt;font style=&quot;font-size: 20px;&quot;&gt;Hardware&lt;/font&gt;&lt;/b&gt;" style="ellipse;whiteSpace=wrap;html=1;aspect=fixed;strokeWidth=4;" parent="1" vertex="1">
          <mxGeometry x="1047.5" y="887.5" width="122.5" height="122.5" as="geometry" />
        </mxCell>
        <mxCell id="BQ7aynYZEXd5gLbRlKET-5" value="" style="ellipse;whiteSpace=wrap;html=1;aspect=fixed;fillColor=none;strokeColor=#000000;strokeWidth=3;" parent="1" vertex="1">
          <mxGeometry x="977" y="817" width="263.5" height="263.5" as="geometry" />
        </mxCell>
        <mxCell id="BQ7aynYZEXd5gLbRlKET-6" value="&lt;b&gt;Kernel&lt;/b&gt;" style="text;html=1;strokeColor=none;fillColor=none;align=center;verticalAlign=middle;whiteSpace=wrap;rounded=0;fontSize=20;" parent="1" vertex="1">
          <mxGeometry x="1078.75" y="840" width="60" height="30" as="geometry" />
        </mxCell>
        <mxCell id="BQ7aynYZEXd5gLbRlKET-7" value="" style="ellipse;whiteSpace=wrap;html=1;aspect=fixed;strokeColor=#000000;strokeWidth=4;fontSize=20;fillColor=none;" parent="1" vertex="1">
          <mxGeometry x="918.75" y="758.75" width="380" height="380" as="geometry" />
        </mxCell>
        <mxCell id="BQ7aynYZEXd5gLbRlKET-8" value="&lt;b&gt;Shell&lt;/b&gt;" style="text;html=1;strokeColor=none;fillColor=none;align=center;verticalAlign=middle;whiteSpace=wrap;rounded=0;fontSize=20;" parent="1" vertex="1">
          <mxGeometry x="1079" y="770" width="60" height="30" as="geometry" />
        </mxCell>
        <mxCell id="BQ7aynYZEXd5gLbRlKET-12" value="&lt;b&gt;&lt;font style=&quot;font-size: 24px;&quot;&gt;User&amp;nbsp;&lt;/font&gt;&lt;/b&gt;" style="text;html=1;strokeColor=none;fillColor=none;align=center;verticalAlign=middle;whiteSpace=wrap;rounded=0;fontSize=20;" parent="1" vertex="1">
          <mxGeometry x="1250" y="1120" width="60" height="30" as="geometry" />
        </mxCell>
        <mxCell id="BQ7aynYZEXd5gLbRlKET-13" value="" style="rounded=1;whiteSpace=wrap;html=1;strokeColor=#000000;strokeWidth=4;fontSize=24;fontColor=#F50AC6;fillColor=default;" parent="1" vertex="1">
          <mxGeometry x="-240" y="790" width="760" height="700" as="geometry" />
        </mxCell>
        <mxCell id="BQ7aynYZEXd5gLbRlKET-15" value="&lt;font style=&quot;font-size: 35px;&quot; color=&quot;#0f0f0f&quot;&gt;&lt;b&gt;&lt;font style=&quot;font-size: 35px;&quot;&gt;[&lt;/font&gt;&lt;font style=&quot;font-size: 35px;&quot;&gt;root&lt;/font&gt;&lt;font style=&quot;font-size: 35px;&quot;&gt;@&lt;/font&gt;&lt;font style=&quot;font-size: 35px;&quot;&gt;Linux-Box&lt;/font&gt;&lt;font style=&quot;font-size: 35px;&quot;&gt; &lt;/font&gt;&lt;font style=&quot;font-size: 35px;&quot;&gt;~&lt;/font&gt;&lt;font style=&quot;font-size: 35px;&quot;&gt;] #&lt;/font&gt;&lt;/b&gt;&lt;/font&gt;" style="text;html=1;align=center;verticalAlign=middle;resizable=0;points=[];autosize=1;strokeColor=none;fillColor=none;fontSize=24;fontColor=#F50AC6;" parent="1" vertex="1">
          <mxGeometry x="-220" y="825" width="380" height="60" as="geometry" />
        </mxCell>
        <mxCell id="BQ7aynYZEXd5gLbRlKET-24" value="&lt;ul&gt;&lt;li&gt;Root = Current Login User&lt;/li&gt;&lt;li&gt;@ = Separator&amp;nbsp;&lt;/li&gt;&lt;li&gt;Linux-Box = Hostname of system&lt;/li&gt;&lt;li&gt;~ = Current working directory&amp;nbsp; /root&lt;/li&gt;&lt;li&gt;# = indication of logged in as a root user&amp;nbsp;&lt;/li&gt;&lt;/ul&gt;" style="text;html=1;strokeColor=none;fillColor=none;align=left;verticalAlign=middle;whiteSpace=wrap;rounded=0;fontSize=35;fontColor=#0f0f0f;" parent="1" vertex="1">
          <mxGeometry x="-210" y="887.5" width="690" height="230" as="geometry" />
        </mxCell>
        <mxCell id="BQ7aynYZEXd5gLbRlKET-25" value="&lt;font style=&quot;font-size: 35px;&quot; color=&quot;#0f0f0f&quot;&gt;&lt;b&gt;&lt;font style=&quot;font-size: 35px;&quot;&gt;[tom&lt;/font&gt;&lt;font style=&quot;font-size: 35px;&quot;&gt;@&lt;/font&gt;&lt;font style=&quot;font-size: 35px;&quot;&gt;Linux-Box&lt;/font&gt;&lt;font style=&quot;font-size: 35px;&quot;&gt;&amp;nbsp;/tmp&lt;/font&gt;&lt;font style=&quot;font-size: 35px;&quot;&gt;] $&lt;/font&gt;&lt;/b&gt;&lt;/font&gt;" style="text;html=1;align=center;verticalAlign=middle;resizable=0;points=[];autosize=1;strokeColor=none;fillColor=none;fontSize=24;fontColor=#F50AC6;" parent="1" vertex="1">
          <mxGeometry x="-220" y="1138.75" width="430" height="60" as="geometry" />
        </mxCell>
        <mxCell id="BQ7aynYZEXd5gLbRlKET-26" value="&lt;ul&gt;&lt;li&gt;Root = Current Login User&lt;/li&gt;&lt;li&gt;@ = Separator&amp;nbsp;&lt;/li&gt;&lt;li&gt;Linux-Box = Hostname of system&lt;/li&gt;&lt;li&gt;/tmp = Current working directory&amp;nbsp;&lt;/li&gt;&lt;li&gt;$ = indication of logged in as a normal user&amp;nbsp;&lt;/li&gt;&lt;/ul&gt;" style="text;html=1;strokeColor=none;fillColor=none;align=left;verticalAlign=middle;whiteSpace=wrap;rounded=0;fontSize=35;fontColor=#0f0f0f;" parent="1" vertex="1">
          <mxGeometry x="-210" y="1210" width="730" height="240" as="geometry" />
        </mxCell>
        <mxCell id="BQ7aynYZEXd5gLbRlKET-27" value="" style="rounded=1;whiteSpace=wrap;html=1;strokeColor=#000000;strokeWidth=4;fontSize=35;fontColor=#0f0f0f;fillColor=default;" parent="1" vertex="1">
          <mxGeometry x="-20" y="1780" width="1000" height="320" as="geometry" />
        </mxCell>
        <mxCell id="BQ7aynYZEXd5gLbRlKET-29" value="&lt;b&gt;/root/dhruv/a.txt&lt;/b&gt;" style="text;html=1;strokeColor=none;fillColor=none;align=center;verticalAlign=middle;whiteSpace=wrap;rounded=0;fontSize=35;fontColor=#0f0f0f;" parent="1" vertex="1">
          <mxGeometry x="-10" y="1920" width="310" height="55.5" as="geometry" />
        </mxCell>
        <mxCell id="BQ7aynYZEXd5gLbRlKET-30" value="" style="endArrow=none;html=1;rounded=0;strokeWidth=3;fontSize=35;fontColor=#0f0f0f;exitX=0.33;exitY=1;exitDx=0;exitDy=0;exitPerimeter=0;" parent="1" source="BQ7aynYZEXd5gLbRlKET-27" edge="1">
          <mxGeometry width="50" height="50" relative="1" as="geometry">
            <mxPoint x="260" y="1830" as="sourcePoint" />
            <mxPoint x="310" y="1780" as="targetPoint" />
          </mxGeometry>
        </mxCell>
        <mxCell id="BQ7aynYZEXd5gLbRlKET-31" value="&lt;b&gt;PWD =/var/lib/jenkins&lt;/b&gt;" style="text;html=1;strokeColor=none;fillColor=none;align=center;verticalAlign=middle;whiteSpace=wrap;rounded=0;fontSize=35;fontColor=#0f0f0f;" parent="1" vertex="1">
          <mxGeometry x="450" y="1900" width="430" height="30" as="geometry" />
        </mxCell>
        <mxCell id="BQ7aynYZEXd5gLbRlKET-32" value="&lt;font style=&quot;font-size: 41px;&quot;&gt;cd /root/dhruv/a.txt&lt;/font&gt;" style="text;html=1;strokeColor=none;fillColor=none;align=center;verticalAlign=middle;whiteSpace=wrap;rounded=0;fontSize=35;fontColor=#0f0f0f;" parent="1" vertex="1">
          <mxGeometry x="450" y="2000" width="410" height="30" as="geometry" />
        </mxCell>
        <mxCell id="BQ7aynYZEXd5gLbRlKET-33" value="Absolute" style="text;html=1;strokeColor=none;fillColor=none;align=center;verticalAlign=middle;whiteSpace=wrap;rounded=0;fontSize=41;fontColor=#0f0f0f;" parent="1" vertex="1">
          <mxGeometry x="635" y="1800" width="60" height="30" as="geometry" />
        </mxCell>
        <mxCell id="BQ7aynYZEXd5gLbRlKET-34" value="" style="rounded=1;whiteSpace=wrap;html=1;strokeColor=#000000;strokeWidth=4;fontSize=35;fontColor=#0f0f0f;fillColor=default;" parent="1" vertex="1">
          <mxGeometry x="-23" y="2220" width="1000" height="320" as="geometry" />
        </mxCell>
        <mxCell id="BQ7aynYZEXd5gLbRlKET-35" value="&lt;b&gt;/root/dhruv&lt;br&gt;|&lt;br&gt;canada&lt;br&gt;|&lt;br&gt;ON&lt;br&gt;&lt;/b&gt;" style="text;html=1;strokeColor=none;fillColor=none;align=center;verticalAlign=middle;whiteSpace=wrap;rounded=0;fontSize=35;fontColor=#0f0f0f;" parent="1" vertex="1">
          <mxGeometry x="-20" y="2246.5" width="320" height="267" as="geometry" />
        </mxCell>
        <mxCell id="BQ7aynYZEXd5gLbRlKET-36" value="" style="endArrow=none;html=1;rounded=0;strokeWidth=3;fontSize=35;fontColor=#0f0f0f;exitX=0.33;exitY=1;exitDx=0;exitDy=0;exitPerimeter=0;" parent="1" source="BQ7aynYZEXd5gLbRlKET-34" edge="1">
          <mxGeometry width="50" height="50" relative="1" as="geometry">
            <mxPoint x="257" y="2270" as="sourcePoint" />
            <mxPoint x="307" y="2220" as="targetPoint" />
          </mxGeometry>
        </mxCell>
        <mxCell id="BQ7aynYZEXd5gLbRlKET-37" value="&lt;b&gt;PWD =/root/dhruv&lt;/b&gt;" style="text;html=1;strokeColor=none;fillColor=none;align=center;verticalAlign=middle;whiteSpace=wrap;rounded=0;fontSize=35;fontColor=#0f0f0f;" parent="1" vertex="1">
          <mxGeometry x="447" y="2340" width="430" height="30" as="geometry" />
        </mxCell>
        <mxCell id="BQ7aynYZEXd5gLbRlKET-38" value="&lt;span style=&quot;font-size: 41px;&quot;&gt;cd canada/ON&lt;/span&gt;" style="text;html=1;strokeColor=none;fillColor=none;align=center;verticalAlign=middle;whiteSpace=wrap;rounded=0;fontSize=35;fontColor=#0f0f0f;" parent="1" vertex="1">
          <mxGeometry x="447" y="2440" width="410" height="30" as="geometry" />
        </mxCell>
        <mxCell id="BQ7aynYZEXd5gLbRlKET-39" value="Relative" style="text;html=1;strokeColor=none;fillColor=none;align=center;verticalAlign=middle;whiteSpace=wrap;rounded=0;fontSize=41;fontColor=#0f0f0f;" parent="1" vertex="1">
          <mxGeometry x="632" y="2240" width="60" height="30" as="geometry" />
        </mxCell>
      </root>
    </mxGraphModel>
  </diagram>
  <diagram id="QX7T-tJT3nYvAKTPS0dW" name="Page-4">
    <mxGraphModel dx="2562" dy="1020" grid="1" gridSize="10" guides="1" tooltips="1" connect="1" arrows="1" fold="1" page="1" pageScale="1" pageWidth="827" pageHeight="1169" math="0" shadow="0">
      <root>
        <mxCell id="0" />
        <mxCell id="1" parent="0" />
        <mxCell id="PiQuusCnATX9hFPbjEhs-120" value="" style="rounded=0;whiteSpace=wrap;html=1;strokeWidth=3;" vertex="1" parent="1">
          <mxGeometry x="-100" y="3000" width="1400" height="780" as="geometry" />
        </mxCell>
        <mxCell id="PiQuusCnATX9hFPbjEhs-1" value="" style="rounded=1;whiteSpace=wrap;html=1;strokeWidth=4;" vertex="1" parent="1">
          <mxGeometry x="110" y="800" width="570" height="350" as="geometry" />
        </mxCell>
        <mxCell id="PiQuusCnATX9hFPbjEhs-2" value="" style="rounded=0;whiteSpace=wrap;html=1;fillColor=#ffcd28;strokeColor=#000000;strokeWidth=4;gradientColor=#ffa500;" vertex="1" parent="1">
          <mxGeometry x="150" y="835" width="120" height="260" as="geometry" />
        </mxCell>
        <mxCell id="PiQuusCnATX9hFPbjEhs-3" value="" style="ellipse;whiteSpace=wrap;html=1;aspect=fixed;fillColor=#d5e8d4;strokeColor=#080808;strokeWidth=4;gradientColor=#97d077;" vertex="1" parent="1">
          <mxGeometry x="360" y="820" width="290" height="290" as="geometry" />
        </mxCell>
        <mxCell id="PiQuusCnATX9hFPbjEhs-6" style="edgeStyle=orthogonalEdgeStyle;rounded=0;orthogonalLoop=1;jettySize=auto;html=1;strokeWidth=4;" edge="1" parent="1" source="PiQuusCnATX9hFPbjEhs-4" target="PiQuusCnATX9hFPbjEhs-5">
          <mxGeometry relative="1" as="geometry">
            <Array as="points">
              <mxPoint x="410" y="1073" />
              <mxPoint x="410" y="1073" />
            </Array>
          </mxGeometry>
        </mxCell>
        <mxCell id="PiQuusCnATX9hFPbjEhs-7" value="&lt;b&gt;&lt;font style=&quot;font-size: 16px;&quot;&gt;Reference&lt;/font&gt;&lt;/b&gt;" style="edgeLabel;html=1;align=center;verticalAlign=middle;resizable=0;points=[];" vertex="1" connectable="0" parent="PiQuusCnATX9hFPbjEhs-6">
          <mxGeometry x="-0.1993" y="-3" relative="1" as="geometry">
            <mxPoint x="-26" y="-3" as="offset" />
          </mxGeometry>
        </mxCell>
        <mxCell id="PiQuusCnATX9hFPbjEhs-4" value="&lt;font style=&quot;font-size: 22px;&quot;&gt;&lt;b&gt;e1&lt;/b&gt;&lt;/font&gt;" style="rounded=0;whiteSpace=wrap;html=1;fillColor=#d0cee2;strokeColor=#56517e;strokeWidth=4;" vertex="1" parent="1">
          <mxGeometry x="150" y="1050" width="120" height="45" as="geometry" />
        </mxCell>
        <mxCell id="PiQuusCnATX9hFPbjEhs-5" value="&lt;div style=&quot;text-align: left; font-size: 15px;&quot;&gt;&lt;span style=&quot;background-color: initial;&quot;&gt;&lt;font color=&quot;#ff0fe7&quot; style=&quot;font-size: 15px;&quot;&gt;&lt;b&gt;name&lt;/b&gt;&lt;/font&gt;&lt;/span&gt;&lt;/div&gt;&lt;div style=&quot;text-align: left; font-size: 15px;&quot;&gt;&lt;span style=&quot;background-color: initial;&quot;&gt;&lt;font color=&quot;#ff0fe7&quot; style=&quot;font-size: 15px;&quot;&gt;&lt;b&gt;age&amp;nbsp;&lt;/b&gt;&lt;/font&gt;&lt;/span&gt;&lt;/div&gt;&lt;div style=&quot;text-align: left; font-size: 15px;&quot;&gt;&lt;span style=&quot;background-color: initial;&quot;&gt;&lt;font color=&quot;#ff0fe7&quot; style=&quot;font-size: 15px;&quot;&gt;&lt;b&gt;salary&lt;/b&gt;&lt;/font&gt;&lt;/span&gt;&lt;/div&gt;" style="ellipse;whiteSpace=wrap;html=1;aspect=fixed;fillColor=#fad9d5;strokeColor=#ae4132;strokeWidth=4;" vertex="1" parent="1">
          <mxGeometry x="480" y="1000" width="100" height="100" as="geometry" />
        </mxCell>
        <mxCell id="PiQuusCnATX9hFPbjEhs-8" value="&lt;b&gt;&lt;font style=&quot;font-size: 15px;&quot;&gt;Stack&amp;nbsp;&lt;/font&gt;&lt;/b&gt;&lt;span style=&quot;font-size: 15px;&quot;&gt;&lt;b&gt;Memory&lt;/b&gt;&lt;/span&gt;" style="text;html=1;strokeColor=none;fillColor=none;align=center;verticalAlign=middle;whiteSpace=wrap;rounded=0;" vertex="1" parent="1">
          <mxGeometry x="154" y="1110" width="110" height="30" as="geometry" />
        </mxCell>
        <mxCell id="PiQuusCnATX9hFPbjEhs-9" value="&lt;b&gt;&lt;font style=&quot;font-size: 15px;&quot;&gt;Heap&amp;nbsp;&lt;/font&gt;&lt;/b&gt;&lt;span style=&quot;font-size: 15px;&quot;&gt;&lt;b&gt;Memory&lt;/b&gt;&lt;/span&gt;" style="text;html=1;strokeColor=none;fillColor=none;align=center;verticalAlign=middle;whiteSpace=wrap;rounded=0;" vertex="1" parent="1">
          <mxGeometry x="450" y="1110" width="110" height="30" as="geometry" />
        </mxCell>
        <mxCell id="PiQuusCnATX9hFPbjEhs-10" value="&lt;div style=&quot;text-align: left; font-size: 15px;&quot;&gt;&lt;span style=&quot;background-color: initial;&quot;&gt;&lt;font color=&quot;#ff0fe7&quot; style=&quot;font-size: 15px;&quot;&gt;&lt;b&gt;name&lt;/b&gt;&lt;/font&gt;&lt;/span&gt;&lt;/div&gt;&lt;div style=&quot;text-align: left; font-size: 15px;&quot;&gt;&lt;span style=&quot;background-color: initial;&quot;&gt;&lt;font color=&quot;#ff0fe7&quot; style=&quot;font-size: 15px;&quot;&gt;&lt;b&gt;age&amp;nbsp;&lt;/b&gt;&lt;/font&gt;&lt;/span&gt;&lt;/div&gt;&lt;div style=&quot;text-align: left; font-size: 15px;&quot;&gt;&lt;span style=&quot;background-color: initial;&quot;&gt;&lt;font color=&quot;#ff0fe7&quot; style=&quot;font-size: 15px;&quot;&gt;&lt;b&gt;salary&lt;/b&gt;&lt;/font&gt;&lt;/span&gt;&lt;/div&gt;" style="ellipse;whiteSpace=wrap;html=1;aspect=fixed;fillColor=#fad9d5;strokeColor=#ae4132;strokeWidth=4;" vertex="1" parent="1">
          <mxGeometry x="480" y="880" width="100" height="100" as="geometry" />
        </mxCell>
        <mxCell id="PiQuusCnATX9hFPbjEhs-12" style="edgeStyle=orthogonalEdgeStyle;rounded=0;orthogonalLoop=1;jettySize=auto;html=1;entryX=0;entryY=0.5;entryDx=0;entryDy=0;strokeWidth=4;" edge="1" parent="1" source="PiQuusCnATX9hFPbjEhs-11" target="PiQuusCnATX9hFPbjEhs-10">
          <mxGeometry relative="1" as="geometry">
            <Array as="points">
              <mxPoint x="320" y="1028" />
              <mxPoint x="320" y="930" />
            </Array>
          </mxGeometry>
        </mxCell>
        <mxCell id="PiQuusCnATX9hFPbjEhs-13" value="&lt;b style=&quot;border-color: var(--border-color);&quot;&gt;&lt;font style=&quot;border-color: var(--border-color); font-size: 16px;&quot;&gt;Reference&lt;/font&gt;&lt;/b&gt;" style="edgeLabel;html=1;align=center;verticalAlign=middle;resizable=0;points=[];" vertex="1" connectable="0" parent="PiQuusCnATX9hFPbjEhs-12">
          <mxGeometry x="0.135" relative="1" as="geometry">
            <mxPoint x="-27" as="offset" />
          </mxGeometry>
        </mxCell>
        <mxCell id="PiQuusCnATX9hFPbjEhs-11" value="&lt;font style=&quot;font-size: 22px;&quot;&gt;&lt;b&gt;e2&lt;/b&gt;&lt;/font&gt;" style="rounded=0;whiteSpace=wrap;html=1;fillColor=#d0cee2;strokeColor=#56517e;strokeWidth=4;" vertex="1" parent="1">
          <mxGeometry x="150" y="1005" width="120" height="45" as="geometry" />
        </mxCell>
        <mxCell id="PiQuusCnATX9hFPbjEhs-16" value="" style="rounded=0;whiteSpace=wrap;html=1;fontSize=19;strokeWidth=3;" vertex="1" parent="1">
          <mxGeometry x="51" y="3050" width="120" height="200" as="geometry" />
        </mxCell>
        <mxCell id="PiQuusCnATX9hFPbjEhs-18" value="" style="rounded=0;whiteSpace=wrap;html=1;fontSize=19;strokeWidth=3;" vertex="1" parent="1">
          <mxGeometry x="51" y="3210" width="120" height="40" as="geometry" />
        </mxCell>
        <mxCell id="PiQuusCnATX9hFPbjEhs-19" value="" style="rounded=0;whiteSpace=wrap;html=1;fontSize=19;strokeWidth=3;" vertex="1" parent="1">
          <mxGeometry x="51" y="3170" width="120" height="40" as="geometry" />
        </mxCell>
        <mxCell id="PiQuusCnATX9hFPbjEhs-20" value="" style="rounded=0;whiteSpace=wrap;html=1;fontSize=19;strokeWidth=3;" vertex="1" parent="1">
          <mxGeometry x="51" y="3130" width="120" height="40" as="geometry" />
        </mxCell>
        <mxCell id="PiQuusCnATX9hFPbjEhs-21" value="" style="rounded=0;whiteSpace=wrap;html=1;fontSize=19;strokeWidth=3;" vertex="1" parent="1">
          <mxGeometry x="51" y="3090" width="120" height="40" as="geometry" />
        </mxCell>
        <mxCell id="PiQuusCnATX9hFPbjEhs-22" value="" style="rounded=0;whiteSpace=wrap;html=1;fontSize=19;strokeWidth=3;" vertex="1" parent="1">
          <mxGeometry x="51" y="3050" width="120" height="40" as="geometry" />
        </mxCell>
        <mxCell id="PiQuusCnATX9hFPbjEhs-38" value="&lt;font style=&quot;font-size: 19px;&quot;&gt;&lt;b style=&quot;font-size: 19px;&quot;&gt;Stack&lt;/b&gt;&lt;/font&gt;" style="text;html=1;strokeColor=none;fillColor=none;align=center;verticalAlign=middle;whiteSpace=wrap;rounded=0;fontSize=19;strokeWidth=3;" vertex="1" parent="1">
          <mxGeometry x="61" y="3270" width="100" height="30" as="geometry" />
        </mxCell>
        <mxCell id="PiQuusCnATX9hFPbjEhs-39" value="" style="endArrow=classic;html=1;rounded=0;fontSize=19;strokeWidth=3;" edge="1" parent="1">
          <mxGeometry width="50" height="50" relative="1" as="geometry">
            <mxPoint x="1" y="3260" as="sourcePoint" />
            <mxPoint x="51" y="3260" as="targetPoint" />
          </mxGeometry>
        </mxCell>
        <mxCell id="PiQuusCnATX9hFPbjEhs-40" value="&lt;b style=&quot;font-size: 19px;&quot;&gt;&lt;font style=&quot;font-size: 19px;&quot;&gt;Top = -1&lt;/font&gt;&lt;/b&gt;" style="text;html=1;strokeColor=none;fillColor=none;align=center;verticalAlign=middle;whiteSpace=wrap;rounded=0;fontSize=19;strokeWidth=3;" vertex="1" parent="1">
          <mxGeometry x="-69" y="3240" width="70" height="30" as="geometry" />
        </mxCell>
        <mxCell id="PiQuusCnATX9hFPbjEhs-41" value="" style="rounded=0;whiteSpace=wrap;html=1;fontSize=19;strokeWidth=3;" vertex="1" parent="1">
          <mxGeometry x="311" y="3040" width="120" height="200" as="geometry" />
        </mxCell>
        <mxCell id="PiQuusCnATX9hFPbjEhs-42" value="10" style="rounded=0;whiteSpace=wrap;html=1;fontSize=19;strokeWidth=3;" vertex="1" parent="1">
          <mxGeometry x="311" y="3200" width="120" height="40" as="geometry" />
        </mxCell>
        <mxCell id="PiQuusCnATX9hFPbjEhs-43" value="" style="rounded=0;whiteSpace=wrap;html=1;fontSize=19;strokeWidth=3;" vertex="1" parent="1">
          <mxGeometry x="311" y="3160" width="120" height="40" as="geometry" />
        </mxCell>
        <mxCell id="PiQuusCnATX9hFPbjEhs-44" value="" style="rounded=0;whiteSpace=wrap;html=1;fontSize=19;strokeWidth=3;" vertex="1" parent="1">
          <mxGeometry x="311" y="3120" width="120" height="40" as="geometry" />
        </mxCell>
        <mxCell id="PiQuusCnATX9hFPbjEhs-45" value="" style="rounded=0;whiteSpace=wrap;html=1;fontSize=19;strokeWidth=3;" vertex="1" parent="1">
          <mxGeometry x="311" y="3080" width="120" height="40" as="geometry" />
        </mxCell>
        <mxCell id="PiQuusCnATX9hFPbjEhs-46" value="" style="rounded=0;whiteSpace=wrap;html=1;fontSize=19;strokeWidth=3;" vertex="1" parent="1">
          <mxGeometry x="311" y="3040" width="120" height="40" as="geometry" />
        </mxCell>
        <mxCell id="PiQuusCnATX9hFPbjEhs-47" value="&lt;font style=&quot;font-size: 19px;&quot;&gt;&lt;b style=&quot;font-size: 19px;&quot;&gt;Stack&lt;br style=&quot;font-size: 19px;&quot;&gt;Push(10)&lt;br style=&quot;font-size: 19px;&quot;&gt;&lt;/b&gt;&lt;/font&gt;" style="text;html=1;strokeColor=none;fillColor=none;align=center;verticalAlign=middle;whiteSpace=wrap;rounded=0;fontSize=19;strokeWidth=3;" vertex="1" parent="1">
          <mxGeometry x="321" y="3260" width="100" height="30" as="geometry" />
        </mxCell>
        <mxCell id="PiQuusCnATX9hFPbjEhs-50" value="" style="endArrow=classic;html=1;rounded=0;fontSize=19;strokeWidth=3;" edge="1" parent="1">
          <mxGeometry width="50" height="50" relative="1" as="geometry">
            <mxPoint x="261" y="3225" as="sourcePoint" />
            <mxPoint x="311" y="3225" as="targetPoint" />
          </mxGeometry>
        </mxCell>
        <mxCell id="PiQuusCnATX9hFPbjEhs-51" value="&lt;b style=&quot;font-size: 19px;&quot;&gt;&lt;font style=&quot;font-size: 19px;&quot;&gt;Top = 0&lt;/font&gt;&lt;/b&gt;" style="text;html=1;strokeColor=none;fillColor=none;align=center;verticalAlign=middle;whiteSpace=wrap;rounded=0;fontSize=19;strokeWidth=3;" vertex="1" parent="1">
          <mxGeometry x="191" y="3210" width="70" height="30" as="geometry" />
        </mxCell>
        <mxCell id="PiQuusCnATX9hFPbjEhs-52" value="" style="rounded=0;whiteSpace=wrap;html=1;fontSize=19;strokeWidth=3;" vertex="1" parent="1">
          <mxGeometry x="601" y="3040" width="120" height="200" as="geometry" />
        </mxCell>
        <mxCell id="PiQuusCnATX9hFPbjEhs-53" value="10" style="rounded=0;whiteSpace=wrap;html=1;fontSize=19;strokeWidth=3;" vertex="1" parent="1">
          <mxGeometry x="601" y="3200" width="120" height="40" as="geometry" />
        </mxCell>
        <mxCell id="PiQuusCnATX9hFPbjEhs-54" value="20" style="rounded=0;whiteSpace=wrap;html=1;fontSize=19;strokeWidth=3;" vertex="1" parent="1">
          <mxGeometry x="601" y="3160" width="120" height="40" as="geometry" />
        </mxCell>
        <mxCell id="PiQuusCnATX9hFPbjEhs-55" value="" style="rounded=0;whiteSpace=wrap;html=1;fontSize=19;strokeWidth=3;" vertex="1" parent="1">
          <mxGeometry x="601" y="3120" width="120" height="40" as="geometry" />
        </mxCell>
        <mxCell id="PiQuusCnATX9hFPbjEhs-56" value="" style="rounded=0;whiteSpace=wrap;html=1;fontSize=19;strokeWidth=3;" vertex="1" parent="1">
          <mxGeometry x="601" y="3080" width="120" height="40" as="geometry" />
        </mxCell>
        <mxCell id="PiQuusCnATX9hFPbjEhs-57" value="" style="rounded=0;whiteSpace=wrap;html=1;fontSize=19;strokeWidth=3;" vertex="1" parent="1">
          <mxGeometry x="601" y="3040" width="120" height="40" as="geometry" />
        </mxCell>
        <mxCell id="PiQuusCnATX9hFPbjEhs-58" value="&lt;font style=&quot;font-size: 19px;&quot;&gt;&lt;b style=&quot;font-size: 19px;&quot;&gt;Stack&lt;/b&gt;&lt;/font&gt;" style="text;html=1;strokeColor=none;fillColor=none;align=center;verticalAlign=middle;whiteSpace=wrap;rounded=0;fontSize=19;strokeWidth=3;" vertex="1" parent="1">
          <mxGeometry x="611" y="3260" width="100" height="30" as="geometry" />
        </mxCell>
        <mxCell id="PiQuusCnATX9hFPbjEhs-59" value="" style="endArrow=classic;html=1;rounded=0;fontSize=19;strokeWidth=3;" edge="1" parent="1">
          <mxGeometry width="50" height="50" relative="1" as="geometry">
            <mxPoint x="551" y="3185" as="sourcePoint" />
            <mxPoint x="601" y="3185" as="targetPoint" />
          </mxGeometry>
        </mxCell>
        <mxCell id="PiQuusCnATX9hFPbjEhs-60" value="&lt;b style=&quot;font-size: 19px;&quot;&gt;&lt;font style=&quot;font-size: 19px;&quot;&gt;Top = 1&lt;/font&gt;&lt;/b&gt;" style="text;html=1;strokeColor=none;fillColor=none;align=center;verticalAlign=middle;whiteSpace=wrap;rounded=0;fontSize=19;strokeWidth=3;" vertex="1" parent="1">
          <mxGeometry x="481" y="3170" width="70" height="30" as="geometry" />
        </mxCell>
        <mxCell id="PiQuusCnATX9hFPbjEhs-61" value="" style="rounded=0;whiteSpace=wrap;html=1;fontSize=19;strokeWidth=3;" vertex="1" parent="1">
          <mxGeometry x="861" y="3030" width="120" height="200" as="geometry" />
        </mxCell>
        <mxCell id="PiQuusCnATX9hFPbjEhs-62" value="10" style="rounded=0;whiteSpace=wrap;html=1;fontSize=19;strokeWidth=3;" vertex="1" parent="1">
          <mxGeometry x="861" y="3190" width="120" height="40" as="geometry" />
        </mxCell>
        <mxCell id="PiQuusCnATX9hFPbjEhs-63" value="20" style="rounded=0;whiteSpace=wrap;html=1;fontSize=19;strokeWidth=3;" vertex="1" parent="1">
          <mxGeometry x="861" y="3150" width="120" height="40" as="geometry" />
        </mxCell>
        <mxCell id="PiQuusCnATX9hFPbjEhs-64" value="30" style="rounded=0;whiteSpace=wrap;html=1;fontSize=19;strokeWidth=3;" vertex="1" parent="1">
          <mxGeometry x="861" y="3110" width="120" height="40" as="geometry" />
        </mxCell>
        <mxCell id="PiQuusCnATX9hFPbjEhs-65" value="" style="rounded=0;whiteSpace=wrap;html=1;fontSize=19;strokeWidth=3;" vertex="1" parent="1">
          <mxGeometry x="861" y="3070" width="120" height="40" as="geometry" />
        </mxCell>
        <mxCell id="PiQuusCnATX9hFPbjEhs-66" value="" style="rounded=0;whiteSpace=wrap;html=1;fontSize=19;strokeWidth=3;" vertex="1" parent="1">
          <mxGeometry x="861" y="3030" width="120" height="40" as="geometry" />
        </mxCell>
        <mxCell id="PiQuusCnATX9hFPbjEhs-67" value="&lt;font style=&quot;font-size: 19px;&quot;&gt;&lt;b style=&quot;font-size: 19px;&quot;&gt;Stack&lt;br style=&quot;font-size: 19px;&quot;&gt;Push(10)&lt;br style=&quot;font-size: 19px;&quot;&gt;&lt;/b&gt;&lt;/font&gt;" style="text;html=1;strokeColor=none;fillColor=none;align=center;verticalAlign=middle;whiteSpace=wrap;rounded=0;fontSize=19;strokeWidth=3;" vertex="1" parent="1">
          <mxGeometry x="871" y="3250" width="100" height="30" as="geometry" />
        </mxCell>
        <mxCell id="PiQuusCnATX9hFPbjEhs-68" value="" style="endArrow=classic;html=1;rounded=0;fontSize=19;strokeWidth=3;" edge="1" parent="1">
          <mxGeometry width="50" height="50" relative="1" as="geometry">
            <mxPoint x="811" y="3130" as="sourcePoint" />
            <mxPoint x="861" y="3130" as="targetPoint" />
          </mxGeometry>
        </mxCell>
        <mxCell id="PiQuusCnATX9hFPbjEhs-69" value="&lt;b style=&quot;font-size: 19px;&quot;&gt;&lt;font style=&quot;font-size: 19px;&quot;&gt;Top = 2&lt;/font&gt;&lt;/b&gt;" style="text;html=1;strokeColor=none;fillColor=none;align=center;verticalAlign=middle;whiteSpace=wrap;rounded=0;fontSize=19;strokeWidth=3;" vertex="1" parent="1">
          <mxGeometry x="741" y="3115" width="70" height="30" as="geometry" />
        </mxCell>
        <mxCell id="PiQuusCnATX9hFPbjEhs-72" value="" style="rounded=0;whiteSpace=wrap;html=1;fontSize=19;strokeWidth=3;" vertex="1" parent="1">
          <mxGeometry x="1121" y="3030" width="120" height="200" as="geometry" />
        </mxCell>
        <mxCell id="PiQuusCnATX9hFPbjEhs-73" value="10" style="rounded=0;whiteSpace=wrap;html=1;fontSize=19;strokeWidth=3;" vertex="1" parent="1">
          <mxGeometry x="1121" y="3190" width="120" height="40" as="geometry" />
        </mxCell>
        <mxCell id="PiQuusCnATX9hFPbjEhs-74" value="20" style="rounded=0;whiteSpace=wrap;html=1;fontSize=19;strokeWidth=3;" vertex="1" parent="1">
          <mxGeometry x="1121" y="3150" width="120" height="40" as="geometry" />
        </mxCell>
        <mxCell id="PiQuusCnATX9hFPbjEhs-75" value="30" style="rounded=0;whiteSpace=wrap;html=1;fontSize=19;strokeWidth=3;" vertex="1" parent="1">
          <mxGeometry x="1121" y="3110" width="120" height="40" as="geometry" />
        </mxCell>
        <mxCell id="PiQuusCnATX9hFPbjEhs-76" value="40" style="rounded=0;whiteSpace=wrap;html=1;fontSize=19;strokeWidth=3;" vertex="1" parent="1">
          <mxGeometry x="1121" y="3070" width="120" height="40" as="geometry" />
        </mxCell>
        <mxCell id="PiQuusCnATX9hFPbjEhs-77" value="" style="rounded=0;whiteSpace=wrap;html=1;fontSize=19;strokeWidth=3;" vertex="1" parent="1">
          <mxGeometry x="1121" y="3030" width="120" height="40" as="geometry" />
        </mxCell>
        <mxCell id="PiQuusCnATX9hFPbjEhs-78" value="&lt;font style=&quot;font-size: 19px;&quot;&gt;&lt;b style=&quot;font-size: 19px;&quot;&gt;Stack&lt;br style=&quot;font-size: 19px;&quot;&gt;Push(10)&lt;br style=&quot;font-size: 19px;&quot;&gt;&lt;/b&gt;&lt;/font&gt;" style="text;html=1;strokeColor=none;fillColor=none;align=center;verticalAlign=middle;whiteSpace=wrap;rounded=0;fontSize=19;strokeWidth=3;" vertex="1" parent="1">
          <mxGeometry x="1131" y="3250" width="100" height="30" as="geometry" />
        </mxCell>
        <mxCell id="PiQuusCnATX9hFPbjEhs-79" value="" style="endArrow=classic;html=1;rounded=0;fontSize=19;strokeWidth=3;" edge="1" parent="1">
          <mxGeometry width="50" height="50" relative="1" as="geometry">
            <mxPoint x="1071" y="3095" as="sourcePoint" />
            <mxPoint x="1121" y="3095" as="targetPoint" />
          </mxGeometry>
        </mxCell>
        <mxCell id="PiQuusCnATX9hFPbjEhs-80" value="&lt;b style=&quot;font-size: 19px;&quot;&gt;&lt;font style=&quot;font-size: 19px;&quot;&gt;Top = 3&lt;/font&gt;&lt;/b&gt;" style="text;html=1;strokeColor=none;fillColor=none;align=center;verticalAlign=middle;whiteSpace=wrap;rounded=0;fontSize=19;strokeWidth=3;" vertex="1" parent="1">
          <mxGeometry x="1001" y="3080" width="70" height="30" as="geometry" />
        </mxCell>
        <mxCell id="PiQuusCnATX9hFPbjEhs-81" value="" style="rounded=0;whiteSpace=wrap;html=1;fontSize=19;strokeWidth=3;" vertex="1" parent="1">
          <mxGeometry x="105" y="3470" width="120" height="200" as="geometry" />
        </mxCell>
        <mxCell id="PiQuusCnATX9hFPbjEhs-82" value="10" style="rounded=0;whiteSpace=wrap;html=1;fontSize=19;strokeWidth=3;" vertex="1" parent="1">
          <mxGeometry x="105" y="3630" width="120" height="40" as="geometry" />
        </mxCell>
        <mxCell id="PiQuusCnATX9hFPbjEhs-83" value="20" style="rounded=0;whiteSpace=wrap;html=1;fontSize=19;strokeWidth=3;" vertex="1" parent="1">
          <mxGeometry x="105" y="3590" width="120" height="40" as="geometry" />
        </mxCell>
        <mxCell id="PiQuusCnATX9hFPbjEhs-84" value="30" style="rounded=0;whiteSpace=wrap;html=1;fontSize=19;strokeWidth=3;" vertex="1" parent="1">
          <mxGeometry x="105" y="3550" width="120" height="40" as="geometry" />
        </mxCell>
        <mxCell id="PiQuusCnATX9hFPbjEhs-85" value="" style="rounded=0;whiteSpace=wrap;html=1;fontSize=19;strokeWidth=3;" vertex="1" parent="1">
          <mxGeometry x="105" y="3510" width="120" height="40" as="geometry" />
        </mxCell>
        <mxCell id="PiQuusCnATX9hFPbjEhs-86" value="" style="rounded=0;whiteSpace=wrap;html=1;fontSize=19;strokeWidth=3;" vertex="1" parent="1">
          <mxGeometry x="105" y="3470" width="120" height="40" as="geometry" />
        </mxCell>
        <mxCell id="PiQuusCnATX9hFPbjEhs-87" value="&lt;font style=&quot;font-size: 19px;&quot;&gt;&lt;b style=&quot;font-size: 19px;&quot;&gt;Stack&lt;br style=&quot;font-size: 19px;&quot;&gt;Pop()&lt;br style=&quot;font-size: 19px;&quot;&gt;&lt;/b&gt;&lt;/font&gt;" style="text;html=1;strokeColor=none;fillColor=none;align=center;verticalAlign=middle;whiteSpace=wrap;rounded=0;fontSize=19;strokeWidth=3;" vertex="1" parent="1">
          <mxGeometry x="115" y="3690" width="100" height="30" as="geometry" />
        </mxCell>
        <mxCell id="PiQuusCnATX9hFPbjEhs-88" value="" style="endArrow=classic;html=1;rounded=0;fontSize=19;strokeWidth=3;" edge="1" parent="1">
          <mxGeometry width="50" height="50" relative="1" as="geometry">
            <mxPoint x="55" y="3570" as="sourcePoint" />
            <mxPoint x="105" y="3570" as="targetPoint" />
          </mxGeometry>
        </mxCell>
        <mxCell id="PiQuusCnATX9hFPbjEhs-89" value="&lt;b style=&quot;font-size: 19px;&quot;&gt;&lt;font style=&quot;font-size: 19px;&quot;&gt;Top = 2&lt;/font&gt;&lt;/b&gt;" style="text;html=1;strokeColor=none;fillColor=none;align=center;verticalAlign=middle;whiteSpace=wrap;rounded=0;fontSize=19;strokeWidth=3;" vertex="1" parent="1">
          <mxGeometry x="-15" y="3555" width="70" height="30" as="geometry" />
        </mxCell>
        <mxCell id="PiQuusCnATX9hFPbjEhs-99" value="" style="rounded=0;whiteSpace=wrap;html=1;fontSize=19;strokeWidth=3;" vertex="1" parent="1">
          <mxGeometry x="425" y="3470" width="120" height="200" as="geometry" />
        </mxCell>
        <mxCell id="PiQuusCnATX9hFPbjEhs-100" value="10" style="rounded=0;whiteSpace=wrap;html=1;fontSize=19;strokeWidth=3;" vertex="1" parent="1">
          <mxGeometry x="425" y="3630" width="120" height="40" as="geometry" />
        </mxCell>
        <mxCell id="PiQuusCnATX9hFPbjEhs-101" value="20" style="rounded=0;whiteSpace=wrap;html=1;fontSize=19;strokeWidth=3;" vertex="1" parent="1">
          <mxGeometry x="425" y="3590" width="120" height="40" as="geometry" />
        </mxCell>
        <mxCell id="PiQuusCnATX9hFPbjEhs-102" value="30" style="rounded=0;whiteSpace=wrap;html=1;fontSize=19;strokeWidth=3;" vertex="1" parent="1">
          <mxGeometry x="425" y="3550" width="120" height="40" as="geometry" />
        </mxCell>
        <mxCell id="PiQuusCnATX9hFPbjEhs-103" value="40" style="rounded=0;whiteSpace=wrap;html=1;fontSize=19;strokeWidth=3;" vertex="1" parent="1">
          <mxGeometry x="425" y="3510" width="120" height="40" as="geometry" />
        </mxCell>
        <mxCell id="PiQuusCnATX9hFPbjEhs-104" value="" style="rounded=0;whiteSpace=wrap;html=1;fontSize=19;strokeWidth=3;" vertex="1" parent="1">
          <mxGeometry x="425" y="3470" width="120" height="40" as="geometry" />
        </mxCell>
        <mxCell id="PiQuusCnATX9hFPbjEhs-105" value="&lt;font style=&quot;font-size: 19px;&quot;&gt;&lt;b style=&quot;font-size: 19px;&quot;&gt;Stack&lt;br style=&quot;font-size: 19px;&quot;&gt;Push(10)&lt;br style=&quot;font-size: 19px;&quot;&gt;&lt;/b&gt;&lt;/font&gt;" style="text;html=1;strokeColor=none;fillColor=none;align=center;verticalAlign=middle;whiteSpace=wrap;rounded=0;fontSize=19;strokeWidth=3;" vertex="1" parent="1">
          <mxGeometry x="435" y="3690" width="100" height="30" as="geometry" />
        </mxCell>
        <mxCell id="PiQuusCnATX9hFPbjEhs-106" value="" style="endArrow=classic;html=1;rounded=0;fontSize=19;strokeWidth=3;" edge="1" parent="1">
          <mxGeometry width="50" height="50" relative="1" as="geometry">
            <mxPoint x="375" y="3535" as="sourcePoint" />
            <mxPoint x="425" y="3535" as="targetPoint" />
          </mxGeometry>
        </mxCell>
        <mxCell id="PiQuusCnATX9hFPbjEhs-107" value="&lt;b style=&quot;font-size: 19px;&quot;&gt;&lt;font style=&quot;font-size: 19px;&quot;&gt;Top = 3&lt;/font&gt;&lt;/b&gt;" style="text;html=1;strokeColor=none;fillColor=none;align=center;verticalAlign=middle;whiteSpace=wrap;rounded=0;fontSize=19;strokeWidth=3;" vertex="1" parent="1">
          <mxGeometry x="305" y="3520" width="70" height="30" as="geometry" />
        </mxCell>
        <mxCell id="PiQuusCnATX9hFPbjEhs-108" value="" style="rounded=0;whiteSpace=wrap;html=1;fontSize=19;strokeWidth=3;" vertex="1" parent="1">
          <mxGeometry x="685" y="3470" width="120" height="200" as="geometry" />
        </mxCell>
        <mxCell id="PiQuusCnATX9hFPbjEhs-109" value="10" style="rounded=0;whiteSpace=wrap;html=1;fontSize=19;strokeWidth=3;" vertex="1" parent="1">
          <mxGeometry x="685" y="3630" width="120" height="40" as="geometry" />
        </mxCell>
        <mxCell id="PiQuusCnATX9hFPbjEhs-110" value="20" style="rounded=0;whiteSpace=wrap;html=1;fontSize=19;strokeWidth=3;" vertex="1" parent="1">
          <mxGeometry x="685" y="3590" width="120" height="40" as="geometry" />
        </mxCell>
        <mxCell id="PiQuusCnATX9hFPbjEhs-111" value="30" style="rounded=0;whiteSpace=wrap;html=1;fontSize=19;strokeWidth=3;" vertex="1" parent="1">
          <mxGeometry x="685" y="3550" width="120" height="40" as="geometry" />
        </mxCell>
        <mxCell id="PiQuusCnATX9hFPbjEhs-112" value="40" style="rounded=0;whiteSpace=wrap;html=1;fontSize=19;strokeWidth=3;" vertex="1" parent="1">
          <mxGeometry x="685" y="3510" width="120" height="40" as="geometry" />
        </mxCell>
        <mxCell id="PiQuusCnATX9hFPbjEhs-113" value="50" style="rounded=0;whiteSpace=wrap;html=1;fontSize=19;strokeWidth=3;" vertex="1" parent="1">
          <mxGeometry x="685" y="3470" width="120" height="40" as="geometry" />
        </mxCell>
        <mxCell id="PiQuusCnATX9hFPbjEhs-114" value="&lt;font style=&quot;font-size: 19px;&quot;&gt;&lt;b style=&quot;font-size: 19px;&quot;&gt;Stack&lt;br style=&quot;font-size: 19px;&quot;&gt;Push(10)&lt;br style=&quot;font-size: 19px;&quot;&gt;&lt;/b&gt;&lt;/font&gt;" style="text;html=1;strokeColor=none;fillColor=none;align=center;verticalAlign=middle;whiteSpace=wrap;rounded=0;fontSize=19;strokeWidth=3;" vertex="1" parent="1">
          <mxGeometry x="695" y="3690" width="100" height="30" as="geometry" />
        </mxCell>
        <mxCell id="PiQuusCnATX9hFPbjEhs-115" value="" style="endArrow=classic;html=1;rounded=0;fontSize=19;strokeWidth=3;" edge="1" parent="1">
          <mxGeometry width="50" height="50" relative="1" as="geometry">
            <mxPoint x="625" y="3494.5" as="sourcePoint" />
            <mxPoint x="675" y="3494.5" as="targetPoint" />
          </mxGeometry>
        </mxCell>
        <mxCell id="PiQuusCnATX9hFPbjEhs-116" value="&lt;b style=&quot;font-size: 19px;&quot;&gt;&lt;font style=&quot;font-size: 19px;&quot;&gt;Top = 4&lt;/font&gt;&lt;/b&gt;" style="text;html=1;strokeColor=none;fillColor=none;align=center;verticalAlign=middle;whiteSpace=wrap;rounded=0;fontSize=19;strokeWidth=3;" vertex="1" parent="1">
          <mxGeometry x="555" y="3480" width="70" height="30" as="geometry" />
        </mxCell>
        <mxCell id="PiQuusCnATX9hFPbjEhs-119" value="&lt;div style=&quot;text-align: justify; font-size: 19px;&quot;&gt;&lt;span style=&quot;background-color: initial; font-size: 19px;&quot;&gt;&lt;font color=&quot;#fa6800&quot; style=&quot;font-size: 19px;&quot;&gt;Stack is full now top = size -1.&lt;/font&gt;&lt;/span&gt;&lt;/div&gt;&lt;div style=&quot;text-align: justify; font-size: 19px;&quot;&gt;&lt;span style=&quot;background-color: initial; font-size: 19px;&quot;&gt;&lt;font color=&quot;#fa6800&quot; style=&quot;font-size: 19px;&quot;&gt;&lt;br style=&quot;font-size: 19px;&quot;&gt;&lt;/font&gt;&lt;/span&gt;&lt;/div&gt;&lt;font style=&quot;font-size: 19px;&quot;&gt;&lt;div style=&quot;text-align: left; font-size: 19px;&quot;&gt;&lt;font color=&quot;#fa6800&quot; style=&quot;font-size: 19px;&quot;&gt;&lt;span style=&quot;background-color: initial; font-size: 19px;&quot;&gt;If top = -1 and you try to pop&amp;nbsp; elements then&amp;nbsp; it give you exception&amp;nbsp; stack is underflow.&lt;/span&gt;&lt;br style=&quot;font-size: 19px;&quot;&gt;&lt;/font&gt;&lt;/div&gt;&lt;div style=&quot;text-align: left; font-size: 19px;&quot;&gt;&lt;span style=&quot;background-color: initial; font-size: 19px;&quot;&gt;&lt;font color=&quot;#fa6800&quot; style=&quot;font-size: 19px;&quot;&gt;&lt;br style=&quot;font-size: 19px;&quot;&gt;&lt;/font&gt;&lt;/span&gt;&lt;/div&gt;&lt;div style=&quot;text-align: left; font-size: 19px;&quot;&gt;&lt;font color=&quot;#fa6800&quot; style=&quot;font-size: 19px;&quot;&gt;If you try to push&amp;nbsp; any value now it give you exception&amp;nbsp; stack is overflow.&lt;span style=&quot;background-color: initial; font-size: 19px;&quot;&gt;&lt;br style=&quot;font-size: 19px;&quot;&gt;&lt;/span&gt;&lt;/font&gt;&lt;/div&gt;&lt;div style=&quot;text-align: left; font-size: 19px;&quot;&gt;&lt;span style=&quot;background-color: initial; font-size: 19px;&quot;&gt;&lt;font color=&quot;#fa6800&quot; style=&quot;font-size: 19px;&quot;&gt;&lt;br style=&quot;font-size: 19px;&quot;&gt;&lt;/font&gt;&lt;/span&gt;&lt;/div&gt;&lt;div style=&quot;text-align: left; font-size: 19px;&quot;&gt;&lt;span style=&quot;background-color: initial; font-size: 19px;&quot;&gt;&lt;br style=&quot;font-size: 19px;&quot;&gt;&lt;/span&gt;&lt;/div&gt;&lt;/font&gt;" style="text;html=1;strokeColor=none;fillColor=none;align=center;verticalAlign=middle;whiteSpace=wrap;rounded=0;fontSize=19;strokeWidth=3;" vertex="1" parent="1">
          <mxGeometry x="890" y="3490" width="400" height="200" as="geometry" />
        </mxCell>
      </root>
    </mxGraphModel>
  </diagram>
</mxfile>
